<svg style="position: absolute; width: 0; height: 0; overflow: hidden;" version="1.1" xmlns="http://www.w3.org/2000/svg" xmlns:xlink="http://www.w3.org/1999/xlink">
<defs>

<symbol id="icon-bold-arrow" viewBox="0 0 490 490">
<g>
	<path d="M474.459,0v490L15.541,244.991L474.459,0z"/>
</g>
</symbol>

<symbol id="icon-thumb-up" viewBox="0 0 478.2 478.2">
<path d="M457.575,325.1c9.8-12.5,14.5-25.9,13.9-39.7c-0.6-15.2-7.4-27.1-13-34.4c6.5-16.2,9-41.7-12.7-61.5   c-15.9-14.5-42.9-21-80.3-19.2c-26.3,1.2-48.3,6.1-49.2,6.3h-0.1c-5,0.9-10.3,2-15.7,3.2c-0.4-6.4,0.7-22.3,12.5-58.1   c14-42.6,13.2-75.2-2.6-97c-16.6-22.9-43.1-24.7-50.9-24.7c-7.5,0-14.4,3.1-19.3,8.8c-11.1,12.9-9.8,36.7-8.4,47.7   c-13.2,35.4-50.2,122.2-81.5,146.3c-0.6,0.4-1.1,0.9-1.6,1.4c-9.2,9.7-15.4,20.2-19.6,29.4c-5.9-3.2-12.6-5-19.8-5h-61   c-23,0-41.6,18.7-41.6,41.6v162.5c0,23,18.7,41.6,41.6,41.6h61c8.9,0,17.2-2.8,24-7.6l23.5,2.8c3.6,0.5,67.6,8.6,133.3,7.3   c11.9,0.9,23.1,1.4,33.5,1.4c17.9,0,33.5-1.4,46.5-4.2c30.6-6.5,51.5-19.5,62.1-38.6c8.1-14.6,8.1-29.1,6.8-38.3   c19.9-18,23.4-37.9,22.7-51.9C461.275,337.1,459.475,330.2,457.575,325.1z M48.275,447.3c-8.1,0-14.6-6.6-14.6-14.6V270.1   c0-8.1,6.6-14.6,14.6-14.6h61c8.1,0,14.6,6.6,14.6,14.6v162.5c0,8.1-6.6,14.6-14.6,14.6h-61V447.3z M431.975,313.4   c-4.2,4.4-5,11.1-1.8,16.3c0,0.1,4.1,7.1,4.6,16.7c0.7,13.1-5.6,24.7-18.8,34.6c-4.7,3.6-6.6,9.8-4.6,15.4c0,0.1,4.3,13.3-2.7,25.8   c-6.7,12-21.6,20.6-44.2,25.4c-18.1,3.9-42.7,4.6-72.9,2.2c-0.4,0-0.9,0-1.4,0c-64.3,1.4-129.3-7-130-7.1h-0.1l-10.1-1.2   c0.6-2.8,0.9-5.8,0.9-8.8V270.1c0-4.3-0.7-8.5-1.9-12.4c1.8-6.7,6.8-21.6,18.6-34.3c44.9-35.6,88.8-155.7,90.7-160.9   c0.8-2.1,1-4.4,0.6-6.7c-1.7-11.2-1.1-24.9,1.3-29c5.3,0.1,19.6,1.6,28.2,13.5c10.2,14.1,9.8,39.3-1.2,72.7   c-16.8,50.9-18.2,77.7-4.9,89.5c6.6,5.9,15.4,6.2,21.8,3.9c6.1-1.4,11.9-2.6,17.4-3.5c0.4-0.1,0.9-0.2,1.3-0.3   c30.7-6.7,85.7-10.8,104.8,6.6c16.2,14.8,4.7,34.4,3.4,36.5c-3.7,5.6-2.6,12.9,2.4,17.4c0.1,0.1,10.6,10,11.1,23.3   C444.875,295.3,440.675,304.4,431.975,313.4z">

<path d="M307.2,174.933c-18.825,0-34.133,15.309-34.133,34.133S288.375,243.2,307.2,243.2s34.133-15.309,34.133-34.133    S326.025,174.933,307.2,174.933z M307.2,226.133c-9.412,0-17.067-7.654-17.067-17.067c0-9.412,7.654-17.067,17.067-17.067    s17.067,7.654,17.067,17.067C324.267,218.479,316.612,226.133,307.2,226.133z">
</symbol>

<symbol id="icon-alarm" viewBox="0 0 55 55">
<path d="M51.376,45.291C46.716,40.66,44.354,35.179,44.354,29v-8.994c0.043-6.857-4.568-11.405-8.53-13.216
		c-1.135-0.519-2.305-0.919-3.494-1.216V5c0-2.757-2.243-5-5-5s-5,2.243-5,5v0.661c-1.071,0.289-2.124,0.666-3.146,1.138
		C14.805,8.817,10.369,13.681,10.329,20v9c0,6.388-2.256,11.869-6.705,16.291c-0.265,0.264-0.361,0.653-0.249,1.01
		s0.415,0.621,0.784,0.685l9.491,1.639c1.768,0.305,3.396,0.555,4.945,0.761C20.341,52.806,23.768,55,27.512,55
		c3.745,0,7.173-2.196,8.917-5.618c1.543-0.205,3.163-0.454,4.921-0.758l9.49-1.639c0.369-0.063,0.671-0.328,0.784-0.685
		C51.737,45.944,51.641,45.555,51.376,45.291z M24.329,5c0-1.654,1.346-3,3-3s3,1.346,3,3v0.182c-1.993-0.286-4.015-0.274-6,0.047V5
		z M27.512,53c-2.532,0-4.898-1.258-6.417-3.315c2.235,0.23,4.321,0.346,6.406,0.346c2.093,0,4.186-0.116,6.43-0.349
		C32.411,51.741,30.044,53,27.512,53z M41.01,46.653c-1.919,0.331-3.678,0.6-5.34,0.812c-0.002,0-0.004,0-0.006,0
		c-0.732,0.093-1.444,0.174-2.141,0.244c-0.007,0.001-0.015,0.001-0.022,0.002c-0.637,0.064-1.26,0.115-1.876,0.16
		c-0.117,0.009-0.233,0.016-0.35,0.024c-0.534,0.035-1.062,0.063-1.587,0.083c-0.108,0.004-0.216,0.01-0.324,0.013
		c-1.244,0.042-2.471,0.042-3.714,0.001c-0.11-0.004-0.222-0.009-0.332-0.014c-0.518-0.02-1.04-0.047-1.567-0.082
		c-0.124-0.008-0.248-0.016-0.373-0.025c-0.6-0.043-1.207-0.094-1.828-0.155c-0.022-0.002-0.043-0.004-0.064-0.006
		c-0.692-0.069-1.399-0.15-2.126-0.242c-0.003,0-0.006,0-0.009,0c-1.668-0.211-3.433-0.482-5.361-0.814L6.329,45.33
		c3.983-4.554,6-10.038,6-16.33v-8.994c0.034-5.435,3.888-9.637,7.691-11.391c1.131-0.521,2.304-0.91,3.497-1.183
		c0.01-0.002,0.021-0.001,0.031-0.003c2.464-0.554,5.087-0.579,7.58-0.068c0.013,0.003,0.026-0.003,0.039-0.001
		c1.304,0.272,2.588,0.684,3.825,1.249c3.689,1.687,7.396,5.861,7.361,11.392v9c0,6.033,2.175,11.643,6.313,16.331L41.01,46.653z"/>
	<path d="M33.746,11.338c-3.875-1.771-8.62-1.773-12.469,0.002c-2.195,1.012-5.918,3.973-5.948,8.654
		c-0.003,0.552,0.441,1.002,0.994,1.006c0.002,0,0.004,0,0.006,0c0.549,0,0.997-0.443,1-0.994c0.023-3.677,3.019-6.035,4.785-6.85
		c3.331-1.537,7.446-1.533,10.799,0c0.502,0.23,1.096,0.009,1.326-0.493C34.469,12.16,34.248,11.567,33.746,11.338z"/>
</symbol>
<symbol id="icon-briefcase" viewBox="0 0 60 60">
<path d="M56.99,13.5H55v-3H45v3h-4V7.706C41,5.938,39.562,4.5,37.794,4.5H22.206C20.438,4.5,19,5.938,19,7.706V13.5h-4v-3H5v3H3.01
	C1.351,13.5,0,14.851,0,16.51v35.98c0,1.659,1.351,3.01,3.01,3.01h53.98c1.659,0,3.01-1.351,3.01-3.01V16.51
	C60,14.851,58.649,13.5,56.99,13.5z M47,12.5h6v1h-6V12.5z M21,7.706C21,7.041,21.541,6.5,22.206,6.5h15.588
	C38.459,6.5,39,7.041,39,7.706V13.5H21V7.706z M19,15.5h22h4h5v38H10v-38h5H19z M7,12.5h6v1H7V12.5z M2,52.49V16.51
	c0-0.557,0.453-1.01,1.01-1.01H5h3v38H3.01C2.453,53.5,2,53.047,2,52.49z M58,52.49c0,0.557-0.453,1.01-1.01,1.01H52v-38h3h1.99
	c0.557,0,1.01,0.453,1.01,1.01V52.49z"/>
</symbol>
<symbol id="icon-coffee-cup" viewBox="0 0 84.859 84.859">
<path d="M74.443,63.645V35.24c0-1.104-0.396-2.381-1.5-2.381h-45c-1.104,0-2.5,1.276-2.5,2.381v4.619h-1.218
			c-7.615,0-13.81,6.28-13.81,14s6.195,14,13.81,14h2.23c2.18,10,11.113,17,21.775,17h5.791
			C65.949,84.859,74.443,75.956,74.443,63.645z M24.225,63.859c-5.409,0-9.81-4.486-9.81-10s4.4-10,9.81-10h1.218v19.786
			c0,0.199,0.51,0.214,0.516,0.214C25.959,63.859,24.225,63.859,24.225,63.859z M29.443,63.645V36.859h41v26.786
			c0,10.03-6.774,17.214-16.421,17.214h-5.791C38.147,80.859,29.443,73.347,29.443,63.645z"/>
		<path d="M42.324,26.388c-0.884,0.65-1.08,1.893-0.435,2.784c0.391,0.54,1.002,0.827,1.622,0.827c0.406,0,0.816-0.123,1.17-0.38
			c0.307-0.221,2.995-2.26,3.268-5.685c0.19-2.379-0.828-4.699-3.025-6.896c-3.864-3.864-0.684-7.439-0.016-8.108
			c0.789-0.772,0.804-2.039,0.031-2.829c-0.771-0.789-2.037-0.804-2.828-0.032c-0.124,0.122-3.041,3.019-3.064,7.034
			c-0.014,2.452,1.012,4.728,3.048,6.764c1.321,1.321,1.95,2.575,1.869,3.725C43.849,25.206,42.376,26.349,42.324,26.388z"/>
		<path d="M56.4,26.386c-0.887,0.649-1.083,1.894-0.438,2.785c0.391,0.541,1.002,0.828,1.621,0.828c0.406,0,0.816-0.123,1.172-0.38
			c0.146-0.105,3.591-2.644,3.924-6.818c0.227-2.853-1.012-5.653-3.683-8.324c-1.685-1.685-2.538-3.474-2.536-5.315
			c0.003-3.188,2.502-5.713,2.52-5.731c0.791-0.772,0.805-2.039,0.033-2.829c-0.771-0.789-2.039-0.804-2.828-0.032
			c-0.151,0.148-3.697,3.67-3.725,8.541c-0.018,2.961,1.23,5.719,3.708,8.195c1.794,1.794,2.644,3.527,2.525,5.15
			C58.526,24.761,56.455,26.346,56.4,26.386z"/>
</symbol>

<symbol id="icon-flag" viewBox="0 0 60 60">
<path d="M44.18,20l9.668-15.47c0.193-0.309,0.203-0.697,0.027-1.015C53.698,3.197,53.363,3,53,3H8V1c0-0.553-0.447-1-1-1
	S6,0.447,6,1v3v29v3v23c0,0.553,0.447,1,1,1s1-0.447,1-1V37h45c0.363,0,0.698-0.197,0.875-0.516
	c0.176-0.317,0.166-0.706-0.027-1.015L44.18,20z M8,35v-2V5h43.195l-9.043,14.47c-0.203,0.324-0.203,0.736,0,1.061L51.195,35H8z"/>
</symbol>

<symbol id="icon-home" viewBox="0 0 58.365 58.365">
<path d="M57.863,26.632L29.182,0L0.502,26.632c-0.404,0.376-0.428,1.009-0.052,1.414c0.374,0.404,1.009,0.427,1.413,0.052
	l3.319-3.082v33.349h16h16h16V25.015l3.319,3.082c0.192,0.179,0.437,0.267,0.681,0.267c0.269,0,0.536-0.107,0.732-0.319
	C58.291,27.641,58.267,27.008,57.863,26.632z M23.182,56.365v-16c0-3.309,2.691-6,6-6s6,2.691,6,6v16H23.182z M51.182,56.365h-14
	v-16c0-4.411-3.589-8-8-8s-8,3.589-8,8v16h-14V23.158l22-20.429l22,20.429V56.365z"/>
</symbol>

<symbol id="icon-internet" viewBox="0 0 58 58">
<path d="M50.688,48.222C55.232,43.101,58,36.369,58,29c0-7.667-2.996-14.643-7.872-19.834c0,0,0-0.001,0-0.001
	c-0.004-0.006-0.01-0.008-0.013-0.013c-5.079-5.399-12.195-8.855-20.11-9.126l-0.001-0.001L29.439,0.01C29.293,0.005,29.147,0,29,0
	s-0.293,0.005-0.439,0.01l-0.563,0.015l-0.001,0.001c-7.915,0.271-15.031,3.727-20.11,9.126c-0.004,0.005-0.01,0.007-0.013,0.013
	c0,0,0,0.001-0.001,0.002C2.996,14.357,0,21.333,0,29c0,7.369,2.768,14.101,7.312,19.222c0.006,0.009,0.006,0.019,0.013,0.028
	c0.018,0.025,0.044,0.037,0.063,0.06c5.106,5.708,12.432,9.385,20.608,9.665l0.001,0.001l0.563,0.015C28.707,57.995,28.853,58,29,58
	s0.293-0.005,0.439-0.01l0.563-0.015l0.001-0.001c8.185-0.281,15.519-3.965,20.625-9.685c0.013-0.017,0.034-0.022,0.046-0.04
	C50.682,48.241,50.682,48.231,50.688,48.222z M2.025,30h12.003c0.113,4.239,0.941,8.358,2.415,12.217
	c-2.844,1.029-5.563,2.409-8.111,4.131C4.585,41.891,2.253,36.21,2.025,30z M8.878,11.023c2.488,1.618,5.137,2.914,7.9,3.882
	C15.086,19.012,14.15,23.44,14.028,28H2.025C2.264,21.493,4.812,15.568,8.878,11.023z M55.975,28H43.972
	c-0.122-4.56-1.058-8.988-2.75-13.095c2.763-0.968,5.412-2.264,7.9-3.882C53.188,15.568,55.736,21.493,55.975,28z M28,14.963
	c-2.891-0.082-5.729-0.513-8.471-1.283C21.556,9.522,24.418,5.769,28,2.644V14.963z M28,16.963V28H16.028
	c0.123-4.348,1.035-8.565,2.666-12.475C21.7,16.396,24.821,16.878,28,16.963z M30,16.963c3.179-0.085,6.3-0.566,9.307-1.438
	c1.631,3.91,2.543,8.127,2.666,12.475H30V16.963z M30,14.963V2.644c3.582,3.125,6.444,6.878,8.471,11.036
	C35.729,14.45,32.891,14.881,30,14.963z M40.409,13.072c-1.921-4.025-4.587-7.692-7.888-10.835
	c5.856,0.766,11.125,3.414,15.183,7.318C45.4,11.017,42.956,12.193,40.409,13.072z M17.591,13.072
	c-2.547-0.879-4.991-2.055-7.294-3.517c4.057-3.904,9.327-6.552,15.183-7.318C22.178,5.38,19.512,9.047,17.591,13.072z M16.028,30
	H28v10.038c-3.307,0.088-6.547,0.604-9.661,1.541C16.932,37.924,16.141,34.019,16.028,30z M28,42.038v13.318
	c-3.834-3.345-6.84-7.409-8.884-11.917C21.983,42.594,24.961,42.124,28,42.038z M30,55.356V42.038
	c3.039,0.085,6.017,0.556,8.884,1.4C36.84,47.947,33.834,52.011,30,55.356z M30,40.038V30h11.972
	c-0.113,4.019-0.904,7.924-2.312,11.58C36.547,40.642,33.307,40.126,30,40.038z M43.972,30h12.003
	c-0.228,6.21-2.559,11.891-6.307,16.348c-2.548-1.722-5.267-3.102-8.111-4.131C43.032,38.358,43.859,34.239,43.972,30z
	 M9.691,47.846c2.366-1.572,4.885-2.836,7.517-3.781c1.945,4.36,4.737,8.333,8.271,11.698C19.328,54.958,13.823,52.078,9.691,47.846
	z M32.521,55.763c3.534-3.364,6.326-7.337,8.271-11.698c2.632,0.945,5.15,2.209,7.517,3.781
	C44.177,52.078,38.672,54.958,32.521,55.763z"/>
</symbol>
<symbol id="icon-layers" viewBox="0 0 54.953 54.953">
<path d="M45.297,21.946l9.656-5.517L27.477,0.825L0,16.429l9.656,5.517L0,27.429l9.656,5.517L0,38.429l27.477,15.698l27.476-15.698
	l-9.656-5.483l9.656-5.517L45.297,21.946z M27.477,3.125l23.435,13.309l-23.435,13.39L4.041,16.434L27.477,3.125z M11.675,23.099
	l15.802,9.028l15.802-9.028l7.633,4.335l-23.435,13.39L4.041,27.434L11.675,23.099z M50.912,38.434l-23.435,13.39L4.041,38.434
	l7.634-4.335l15.802,9.028l15.802-9.028L50.912,38.434z"/>
</symbol>
<symbol id="icon-light-bulb" viewBox="0 0 512 512">
		<path d="M424.813,154.307C416.28,73.24,351.427,8.387,271.213-0.147C266.093-0.147,260.973-1,255-1
			c-5.973,0-11.093,0.853-16.213,0.853C158.573,9.24,93.72,74.093,85.187,154.307c-5.973,54.613,13.653,108.373,52.907,145.92
			c21.333,20.48,34.987,44.373,40.107,67.413v100.693c0,5.12,3.413,8.533,8.533,8.533h12.8l15.36,20.48
			C221.72,505.88,231.107,511,242.2,511h25.6c11.093,0,21.333-5.12,27.307-13.653l15.36-20.48h12.8c5.12,0,8.533-3.413,8.533-8.533
			V367.64c4.267-23.04,18.773-46.933,40.107-67.413C411.16,261.827,430.787,208.92,424.813,154.307z M220.867,212.333H203.8
			c-9.387,0-17.067-7.68-17.067-17.067s7.68-17.067,17.067-17.067s17.067,7.68,17.067,17.067V212.333z M272.067,357.4h-34.133v-128
			h34.133V357.4z M314.733,374.467v17.067h-25.6c-5.12,0-8.533,3.413-8.533,8.533c0,5.12,3.413,8.533,8.533,8.533h25.6v17.067h-51.2
			c-5.12,0-8.533,3.413-8.533,8.533s3.413,8.533,8.533,8.533h51.2V459.8H306.2H203.8h-8.533v-17.067h25.6
			c5.12,0,8.533-3.413,8.533-8.533s-3.413-8.533-8.533-8.533h-25.6V408.6h51.2c5.12,0,8.533-3.413,8.533-8.533
			c0-5.12-3.413-8.533-8.533-8.533h-51.2v-17.067H314.733z M281.453,487.107c-3.413,4.267-8.533,6.827-13.653,6.827h-25.6
			c-5.12,0-10.24-2.56-13.653-6.827l-7.68-10.24h68.267L281.453,487.107z M359.96,287.427
			c-21.333,21.333-36.693,45.227-43.52,69.973h-27.307v-128H306.2c18.773,0,34.133-15.36,34.133-34.133
			c0-18.773-15.36-34.133-34.133-34.133c-18.773,0-34.133,15.36-34.133,34.133v17.067h-34.133v-17.067
			c0-18.773-15.36-34.133-34.133-34.133s-34.133,15.36-34.133,34.133c0,18.773,15.36,34.133,34.133,34.133h17.067v128H193.56
			c-6.827-24.747-22.187-48.64-43.52-69.973c-35.84-34.133-52.907-81.92-47.787-131.413c8.533-72.533,66.56-130.56,139.093-139.093
			c4.267,0,8.533-0.853,13.653-0.853c5.12,0,9.387,0.853,13.653,0.853c72.533,8.533,131.413,66.56,139.093,139.093
			C412.867,205.507,395.8,253.293,359.96,287.427z M289.133,212.333v-17.067c0-9.387,7.68-17.067,17.067-17.067
			c9.387,0,17.067,7.68,17.067,17.067s-7.68,17.067-17.067,17.067H289.133z"/>
</symbol>
<symbol id="icon-paper-plane" viewBox="0 0 60.062 60.062">
<path d="M60.046,11.196c0.004-0.024,0.011-0.048,0.013-0.072c0.007-0.074-0.001-0.149-0.01-0.224
	c-0.002-0.019,0.001-0.037-0.002-0.056c-0.018-0.099-0.051-0.196-0.1-0.289c-0.008-0.016-0.019-0.031-0.028-0.047
	c-0.002-0.002-0.002-0.005-0.003-0.008c-0.001-0.002-0.004-0.003-0.005-0.006c-0.007-0.011-0.013-0.023-0.02-0.033
	c-0.062-0.091-0.137-0.166-0.221-0.23c-0.019-0.014-0.041-0.022-0.061-0.035c-0.074-0.049-0.152-0.089-0.236-0.116
	c-0.037-0.012-0.074-0.018-0.112-0.025c-0.073-0.015-0.146-0.022-0.222-0.02c-0.04,0.001-0.078,0.003-0.118,0.009
	c-0.026,0.004-0.051,0-0.077,0.006L0.798,22.046c-0.413,0.086-0.729,0.421-0.788,0.839s0.15,0.828,0.523,1.025l16.632,8.773
	l2.917,16.187c-0.002,0.012,0.001,0.025,0,0.037c-0.01,0.08-0.011,0.158-0.001,0.237c0.005,0.04,0.01,0.078,0.02,0.117
	c0.023,0.095,0.06,0.184,0.11,0.268c0.01,0.016,0.01,0.035,0.021,0.051c0.003,0.005,0.008,0.009,0.012,0.013
	c0.013,0.019,0.031,0.034,0.046,0.053c0.047,0.058,0.096,0.111,0.152,0.156c0.009,0.007,0.015,0.018,0.025,0.025
	c0.015,0.011,0.032,0.014,0.047,0.024c0.061,0.04,0.124,0.073,0.191,0.099c0.027,0.01,0.052,0.022,0.08,0.03
	c0.09,0.026,0.183,0.044,0.277,0.044c0.001,0,0.002,0,0.003,0h0c0,0,0,0,0,0c0.004,0,0.008-0.002,0.012-0.002
	c0.017,0.001,0.034,0.002,0.051,0.002c0.277,0,0.527-0.124,0.712-0.315l11.079-7.386l11.6,7.54c0.164,0.106,0.354,0.161,0.545,0.161
	c0.105,0,0.212-0.017,0.315-0.051c0.288-0.096,0.518-0.318,0.623-0.604l13.996-37.989c0.013-0.034,0.024-0.069,0.033-0.105
	c0.004-0.015,0.005-0.03,0.008-0.044C60.042,11.22,60.044,11.208,60.046,11.196z M48.464,17.579L24.471,35.22
	c-0.039,0.029-0.07,0.065-0.104,0.099c-0.013,0.012-0.026,0.022-0.037,0.035c-0.021,0.023-0.04,0.046-0.059,0.071
	c-0.018,0.024-0.032,0.049-0.048,0.074c-0.037,0.06-0.068,0.122-0.092,0.188c-0.005,0.013-0.013,0.023-0.017,0.036
	c-0.001,0.004-0.005,0.006-0.006,0.01l-2.75,8.937l-2.179-12.091L48.464,17.579z M22.908,46.594l2.726-9.004l4.244,2.759
	l1.214,0.789l-4.124,2.749L22.908,46.594z M52.044,13.498L18.071,30.899l-14.14-7.458L52.044,13.498z M44.559,47.504L29.154,37.492
	l-2.333-1.517l30.154-22.172L44.559,47.504z"/>
</symbol>
<symbol id="icon-settings" viewBox="0 0 54 54">
	<path d="M51.22,21h-5.052c-0.812,0-1.481-0.447-1.792-1.197s-0.153-1.54,0.42-2.114l3.572-3.571
		c0.525-0.525,0.814-1.224,0.814-1.966c0-0.743-0.289-1.441-0.814-1.967l-4.553-4.553c-1.05-1.05-2.881-1.052-3.933,0l-3.571,3.571
		c-0.574,0.573-1.366,0.733-2.114,0.421C33.447,9.313,33,8.644,33,7.832V2.78C33,1.247,31.753,0,30.22,0H23.78
		C22.247,0,21,1.247,21,2.78v5.052c0,0.812-0.447,1.481-1.197,1.792c-0.748,0.313-1.54,0.152-2.114-0.421l-3.571-3.571
		c-1.052-1.052-2.883-1.05-3.933,0l-4.553,4.553c-0.525,0.525-0.814,1.224-0.814,1.967c0,0.742,0.289,1.44,0.814,1.966l3.572,3.571
		c0.573,0.574,0.73,1.364,0.42,2.114S8.644,21,7.832,21H2.78C1.247,21,0,22.247,0,23.78v6.439C0,31.753,1.247,33,2.78,33h5.052
		c0.812,0,1.481,0.447,1.792,1.197s0.153,1.54-0.42,2.114l-3.572,3.571c-0.525,0.525-0.814,1.224-0.814,1.966
		c0,0.743,0.289,1.441,0.814,1.967l4.553,4.553c1.051,1.051,2.881,1.053,3.933,0l3.571-3.572c0.574-0.573,1.363-0.731,2.114-0.42
		c0.75,0.311,1.197,0.98,1.197,1.792v5.052c0,1.533,1.247,2.78,2.78,2.78h6.439c1.533,0,2.78-1.247,2.78-2.78v-5.052
		c0-0.812,0.447-1.481,1.197-1.792c0.751-0.312,1.54-0.153,2.114,0.42l3.571,3.572c1.052,1.052,2.883,1.05,3.933,0l4.553-4.553
		c0.525-0.525,0.814-1.224,0.814-1.967c0-0.742-0.289-1.44-0.814-1.966l-3.572-3.571c-0.573-0.574-0.73-1.364-0.42-2.114
		S45.356,33,46.168,33h5.052c1.533,0,2.78-1.247,2.78-2.78V23.78C54,22.247,52.753,21,51.22,21z M52,30.22
		C52,30.65,51.65,31,51.22,31h-5.052c-1.624,0-3.019,0.932-3.64,2.432c-0.622,1.5-0.295,3.146,0.854,4.294l3.572,3.571
		c0.305,0.305,0.305,0.8,0,1.104l-4.553,4.553c-0.304,0.304-0.799,0.306-1.104,0l-3.571-3.572c-1.149-1.149-2.794-1.474-4.294-0.854
		c-1.5,0.621-2.432,2.016-2.432,3.64v5.052C31,51.65,30.65,52,30.22,52H23.78C23.35,52,23,51.65,23,51.22v-5.052
		c0-1.624-0.932-3.019-2.432-3.64c-0.503-0.209-1.021-0.311-1.533-0.311c-1.014,0-1.997,0.4-2.761,1.164l-3.571,3.572
		c-0.306,0.306-0.801,0.304-1.104,0l-4.553-4.553c-0.305-0.305-0.305-0.8,0-1.104l3.572-3.571c1.148-1.148,1.476-2.794,0.854-4.294
		C10.851,31.932,9.456,31,7.832,31H2.78C2.35,31,2,30.65,2,30.22V23.78C2,23.35,2.35,23,2.78,23h5.052
		c1.624,0,3.019-0.932,3.64-2.432c0.622-1.5,0.295-3.146-0.854-4.294l-3.572-3.571c-0.305-0.305-0.305-0.8,0-1.104l4.553-4.553
		c0.304-0.305,0.799-0.305,1.104,0l3.571,3.571c1.147,1.147,2.792,1.476,4.294,0.854C22.068,10.851,23,9.456,23,7.832V2.78
		C23,2.35,23.35,2,23.78,2h6.439C30.65,2,31,2.35,31,2.78v5.052c0,1.624,0.932,3.019,2.432,3.64
		c1.502,0.622,3.146,0.294,4.294-0.854l3.571-3.571c0.306-0.305,0.801-0.305,1.104,0l4.553,4.553c0.305,0.305,0.305,0.8,0,1.104
		l-3.572,3.571c-1.148,1.148-1.476,2.794-0.854,4.294c0.621,1.5,2.016,2.432,3.64,2.432h5.052C51.65,23,52,23.35,52,23.78V30.22z"/>
	<path d="M27,18c-4.963,0-9,4.037-9,9s4.037,9,9,9s9-4.037,9-9S31.963,18,27,18z M27,34c-3.859,0-7-3.141-7-7s3.141-7,7-7
		s7,3.141,7,7S30.859,34,27,34z"/>
</g>
<symbol id="icon-star" viewBox="0 0 55.867 55.867">
<path d="M11.287,54.548c-0.207,0-0.414-0.064-0.588-0.191c-0.308-0.224-0.462-0.603-0.397-0.978l3.091-18.018L0.302,22.602
	c-0.272-0.266-0.37-0.663-0.253-1.024c0.118-0.362,0.431-0.626,0.808-0.681l18.09-2.629l8.091-16.393
	c0.168-0.342,0.516-0.558,0.896-0.558l0,0c0.381,0,0.729,0.216,0.896,0.558l8.09,16.393l18.091,2.629
	c0.377,0.055,0.689,0.318,0.808,0.681c0.117,0.361,0.02,0.759-0.253,1.024L42.475,35.363l3.09,18.017
	c0.064,0.375-0.09,0.754-0.397,0.978c-0.308,0.226-0.717,0.255-1.054,0.076l-16.18-8.506l-16.182,8.506
	C11.606,54.51,11.446,54.548,11.287,54.548z M3.149,22.584l12.016,11.713c0.235,0.229,0.343,0.561,0.287,0.885L12.615,51.72
	l14.854-7.808c0.291-0.154,0.638-0.154,0.931,0l14.852,7.808l-2.836-16.538c-0.056-0.324,0.052-0.655,0.287-0.885l12.016-11.713
	l-16.605-2.413c-0.326-0.047-0.607-0.252-0.753-0.547L27.934,4.578l-7.427,15.047c-0.146,0.295-0.427,0.5-0.753,0.547L3.149,22.584z
	"/>
</symbol>
<symbol id="icon-television" viewBox="0 0 60 60">
<path d="M18.195,55.5h23.609L30,36.613L18.195,55.5z M21.805,53.5L30,40.387L38.195,53.5H21.805z"/>
	<path d="M0,4.5v40h22c0.553,0,1-0.447,1-1s-0.447-1-1-1H2v-36h56v36H38c-0.553,0-1,0.447-1,1s0.447,1,1,1h22v-40H0z"/>
</symbol>
<symbol id="icon-umbrella" viewBox="0 0 60 60">
<path d="M54.949,28.251c0.018-0.069,0.039-0.135,0.042-0.207C54.992,28.029,55,28.016,55,28C55,14.55,44.323,3.553,31,3.025V1
	c0-0.553-0.448-1-1-1s-1,0.447-1,1v2.025C15.677,3.553,5,14.55,5,28c0,0.016,0.008,0.029,0.009,0.045
	c0.003,0.071,0.023,0.137,0.042,0.207c0.016,0.059,0.025,0.118,0.05,0.172c0.025,0.053,0.064,0.097,0.098,0.145
	c0.042,0.059,0.081,0.118,0.135,0.167c0.011,0.01,0.016,0.025,0.028,0.035c0.036,0.03,0.08,0.04,0.118,0.064
	c0.059,0.037,0.115,0.074,0.182,0.098c0.07,0.026,0.141,0.034,0.213,0.043C5.918,28.98,5.956,29,6,29
	c0.015,0,0.027-0.008,0.042-0.008c0.076-0.003,0.147-0.024,0.22-0.044c0.054-0.015,0.109-0.023,0.158-0.047
	c0.057-0.026,0.104-0.068,0.156-0.105c0.055-0.04,0.111-0.077,0.157-0.127c0.011-0.012,0.026-0.017,0.037-0.03
	C8.18,26.937,10.038,26,12,26s3.82,0.937,5.23,2.639c0.019,0.023,0.048,0.032,0.069,0.053c0.024,0.024,0.036,0.056,0.063,0.078
	c0.04,0.033,0.088,0.045,0.13,0.071c0.051,0.031,0.098,0.062,0.152,0.082c0.082,0.032,0.164,0.045,0.249,0.054
	C17.93,28.981,17.964,29,18,29c0.016,0,0.031-0.007,0.046-0.008c0.051-0.002,0.098-0.015,0.148-0.025
	c0.069-0.014,0.135-0.03,0.2-0.059c0.05-0.022,0.095-0.05,0.141-0.081c0.033-0.021,0.07-0.032,0.101-0.058
	c0.024-0.02,0.035-0.048,0.057-0.07c0.023-0.023,0.054-0.035,0.075-0.061C20.18,26.937,22.038,26,24,26c1.86,0,3.62,0.85,5,2.386V55
	c0,1.654-1.346,3-3,3s-3-1.346-3-3c0-0.553-0.448-1-1-1s-1,0.447-1,1c0,2.757,2.243,5,5,5s5-2.243,5-5V28.386
	C32.38,26.85,34.14,26,36,26c1.962,0,3.82,0.937,5.23,2.639c0.019,0.023,0.048,0.032,0.069,0.053
	c0.024,0.024,0.036,0.056,0.063,0.078c0.04,0.033,0.088,0.044,0.13,0.07c0.051,0.031,0.098,0.062,0.153,0.083
	c0.081,0.031,0.163,0.045,0.249,0.054C41.93,28.981,41.964,29,42,29c0.016,0,0.031-0.007,0.046-0.008
	c0.051-0.002,0.099-0.015,0.149-0.026c0.068-0.014,0.134-0.03,0.199-0.058c0.051-0.022,0.096-0.051,0.142-0.081
	c0.033-0.021,0.07-0.032,0.101-0.057c0.024-0.02,0.035-0.048,0.056-0.07c0.023-0.023,0.054-0.035,0.076-0.061
	C44.18,26.937,46.038,26,48,26s3.82,0.937,5.23,2.639c0.01,0.012,0.024,0.015,0.035,0.027c0.07,0.077,0.154,0.135,0.245,0.188
	c0.031,0.018,0.055,0.045,0.088,0.059C53.721,28.967,53.856,29,54,29h0h0c0.123,0,0.245-0.027,0.361-0.073
	c0.045-0.018,0.082-0.047,0.124-0.071c0.051-0.029,0.106-0.048,0.152-0.087c0.012-0.01,0.017-0.024,0.028-0.035
	c0.054-0.049,0.092-0.107,0.135-0.167c0.034-0.048,0.073-0.093,0.098-0.145C54.924,28.369,54.934,28.31,54.949,28.251z M48,24
	c-2.218,0-4.312,0.895-6,2.534C40.312,24.895,38.218,24,36,24s-4.312,0.895-6,2.534C28.312,24.895,26.218,24,24,24
	s-4.312,0.895-6,2.534C16.312,24.895,14.218,24,12,24c-1.75,0-3.418,0.566-4.875,1.605C8.327,14.044,18.127,5,30,5
	s21.673,9.044,22.875,20.605C51.418,24.566,49.75,24,48,24z"/>
</symbol>
<symbol id="icon-users" viewBox="0 0 60 60">
<path d="M55.517,46.55l-9.773-4.233c-0.23-0.115-0.485-0.396-0.704-0.771l6.525-0.005c0.114,0.011,2.804,0.257,4.961-0.67
	c0.817-0.352,1.425-1.047,1.669-1.907c0.246-0.868,0.09-1.787-0.426-2.523c-1.865-2.654-6.218-9.589-6.354-16.623
	c-0.003-0.121-0.397-12.083-12.21-12.18c-1.739,0.014-3.347,0.309-4.81,0.853c-0.319-0.813-0.789-1.661-1.488-2.459
	C30.854,3.688,27.521,2.5,23,2.5s-7.854,1.188-9.908,3.53c-2.368,2.701-2.148,5.976-2.092,6.525v5.319c-0.64,0.729-1,1.662-1,2.625
	v4c0,1.217,0.553,2.352,1.497,3.109c0.916,3.627,2.833,6.36,3.503,7.237v3.309c0,0.968-0.528,1.856-1.377,2.32l-8.921,4.866
	C1.801,46.924,0,49.958,0,53.262V57.5h44h2h14v-3.697C60,50.711,58.282,47.933,55.517,46.55z M44,55.5H2v-2.238
	c0-2.571,1.402-4.934,3.659-6.164l8.921-4.866C16.073,41.417,17,39.854,17,38.155v-4.019l-0.233-0.278
	c-0.024-0.029-2.475-2.994-3.41-7.065l-0.091-0.396l-0.341-0.22C12.346,25.803,12,25.176,12,24.5v-4c0-0.561,0.238-1.084,0.67-1.475
	L13,18.728V12.5l-0.009-0.131c-0.003-0.027-0.343-2.799,1.605-5.021C16.253,5.458,19.081,4.5,23,4.5
	c3.905,0,6.727,0.951,8.386,2.828c0.825,0.932,1.24,1.973,1.447,2.867c0.016,0.07,0.031,0.139,0.045,0.208
	c0.014,0.071,0.029,0.142,0.04,0.21c0.013,0.078,0.024,0.152,0.035,0.226c0.008,0.053,0.016,0.107,0.022,0.158
	c0.015,0.124,0.027,0.244,0.035,0.355c0.001,0.009,0.001,0.017,0.001,0.026c0.007,0.108,0.012,0.21,0.015,0.303
	c0,0.018,0,0.033,0.001,0.051c0.002,0.083,0.002,0.162,0.001,0.231c0,0.01,0,0.02,0,0.03c-0.004,0.235-0.02,0.375-0.02,0.378
	L33,18.728l0.33,0.298C33.762,19.416,34,19.939,34,20.5v4c0,0.873-0.572,1.637-1.422,1.899l-0.498,0.153l-0.16,0.495
	c-0.669,2.081-1.622,4.003-2.834,5.713c-0.297,0.421-0.586,0.794-0.837,1.079L28,34.123v4.125c0,0.253,0.025,0.501,0.064,0.745
	c0.008,0.052,0.022,0.102,0.032,0.154c0.039,0.201,0.091,0.398,0.155,0.59c0.015,0.045,0.031,0.088,0.048,0.133
	c0.078,0.209,0.169,0.411,0.275,0.605c0.012,0.022,0.023,0.045,0.035,0.067c0.145,0.256,0.312,0.499,0.504,0.723l0.228,0.281h0.039
	c0.343,0.338,0.737,0.632,1.185,0.856l9.553,4.776C42.513,48.374,44,50.78,44,53.457V55.5z M58,55.5H46v-2.043
	c0-3.439-1.911-6.53-4.986-8.068l-6.858-3.43c0.169-0.386,0.191-0.828,0.043-1.254c-0.245-0.705-0.885-1.16-1.63-1.16h-2.217
	c-0.046-0.081-0.076-0.17-0.113-0.256c-0.05-0.115-0.109-0.228-0.142-0.349C30.036,38.718,30,38.486,30,38.248v-3.381
	c0.229-0.28,0.47-0.599,0.719-0.951c1.239-1.75,2.232-3.698,2.954-5.799C35.084,27.47,36,26.075,36,24.5v-4
	c0-0.963-0.36-1.896-1-2.625v-5.319c0.026-0.25,0.082-1.069-0.084-2.139c1.288-0.506,2.731-0.767,4.29-0.78
	c9.841,0.081,10.2,9.811,10.21,10.221c0.147,7.583,4.746,14.927,6.717,17.732c0.169,0.24,0.22,0.542,0.139,0.827
	c-0.046,0.164-0.178,0.462-0.535,0.615c-1.68,0.723-3.959,0.518-4.076,0.513h-6.883c-0.643,0-1.229,0.327-1.568,0.874
	c-0.338,0.545-0.37,1.211-0.086,1.783c0.313,0.631,0.866,1.474,1.775,1.927l9.747,4.222C56.715,49.396,58,51.482,58,53.803V55.5z"/>
<g>
</symbol>
<symbol id="icon-video-player" viewBox="0 0 58 58">
	<path d="M36.537,28.156l-11-7c-0.308-0.195-0.698-0.208-1.019-0.033C24.199,21.299,24,21.635,24,22v14
		c0,0.365,0.199,0.701,0.519,0.877C24.669,36.959,24.834,37,25,37c0.187,0,0.374-0.053,0.537-0.156l11-7
		C36.825,29.66,37,29.342,37,29S36.825,28.34,36.537,28.156z M26,34.179V23.821L34.137,29L26,34.179z"/>
	<path d="M57,6H47H11H1C0.448,6,0,6.447,0,7v11v11v11v11c0,0.553,0.448,1,1,1h10h36h10c0.552,0,1-0.447,1-1V40V29V18V7
		C58,6.447,57.552,6,57,6z M10,28H2v-9h8V28z M2,30h8v9H2V30z M12,40V29V18V8h34v10v11v11v10H12V40z M56,28h-8v-9h8V28z M48,30h8v9
		h-8V30z M56,8v9h-8V8H56z M2,8h8v9H2V8z M2,50v-9h8v9H2z M56,50h-8v-9h8V50z"/>
</symbol>
<symbol id="icon-gallery" viewBox="0 0 512 512">
<path d="M494.933,38.4h-409.6c-9.412,0-17.067,7.654-17.067,17.067v17.067H51.2c-9.412,0-17.067,7.654-17.067,17.067v17.067    H17.067C7.654,106.667,0,114.321,0,123.733v332.8c0,9.412,7.654,17.067,17.067,17.067h409.6c9.412,0,17.067-7.654,17.067-17.067    v-17.067H460.8c9.412,0,17.067-7.654,17.067-17.067v-17.067h17.067c9.412,0,17.067-7.654,17.067-17.067v-332.8    C512,46.054,504.346,38.4,494.933,38.4z M17.067,123.733h409.6l0.009,190.635l-44.783-51.183c-3.251-3.721-9.6-3.721-12.851,0    l-54.067,61.79L167.799,194.159c-3.234-2.884-8.098-2.884-11.332,0L17.067,318.071V123.733z M426.684,431.01v25.523H17.067V340.89    l145.067-128.947l147.934,131.49c1.69,1.51,3.942,2.193,6.204,2.142c2.278-0.145,4.395-1.186,5.888-2.901l53.308-60.911    l51.209,58.53l0.008,90.573c0,0.017-0.017,0.043-0.017,0.068S426.684,430.985,426.684,431.01z M460.8,422.4h-17.067V123.733    c0-9.412-7.654-17.067-17.067-17.067H51.2V89.6h409.6V422.4z M494.933,388.267h-17.067V89.6c0-9.412-7.654-17.067-17.067-17.067    H85.333V55.467h409.6V388.267z">

<path d="M307.2,174.933c-18.825,0-34.133,15.309-34.133,34.133S288.375,243.2,307.2,243.2s34.133-15.309,34.133-34.133    S326.025,174.933,307.2,174.933z M307.2,226.133c-9.412,0-17.067-7.654-17.067-17.067c0-9.412,7.654-17.067,17.067-17.067    s17.067,7.654,17.067,17.067C324.267,218.479,316.612,226.133,307.2,226.133z">
</symbol>
<symbol id="icon-cloud" viewBox="0 0 60 60">
<path d="M50.976,20.694c-0.528-9-7.947-16.194-16.892-16.194c-5.43,0-10.688,2.663-13.945,7.008   c-0.075-0.039-0.154-0.066-0.23-0.102c-0.198-0.096-0.399-0.187-0.604-0.269c-0.114-0.045-0.228-0.086-0.343-0.126   c-0.203-0.071-0.409-0.134-0.619-0.191c-0.115-0.031-0.229-0.063-0.345-0.089c-0.225-0.051-0.455-0.09-0.687-0.125   c-0.101-0.015-0.2-0.035-0.302-0.046C16.677,10.523,16.341,10.5,16,10.5c-4.963,0-9,4.037-9,9c0,0.129,0.008,0.255,0.017,0.381   C2.857,22.148,0,26.899,0,31.654C0,38.737,5.762,44.5,12.845,44.5H18c0.553,0,1-0.447,1-1s-0.447-1-1-1h-5.155   C6.865,42.5,2,37.635,2,31.654c0-4.154,2.705-8.466,6.433-10.253L9,21.13V20.5c0-0.12,0.008-0.242,0.015-0.365l0.011-0.185   l-0.013-0.194C9.007,19.671,9,19.586,9,19.5c0-3.859,3.141-7,7-7c0.309,0,0.614,0.027,0.917,0.067   c0.078,0.01,0.156,0.023,0.233,0.036c0.267,0.044,0.53,0.102,0.789,0.177c0.035,0.01,0.071,0.017,0.106,0.027   c0.285,0.087,0.563,0.197,0.835,0.321c0.071,0.032,0.14,0.067,0.21,0.101c0.24,0.119,0.475,0.249,0.702,0.396   C21.719,14.873,23,17.038,23,19.5c0,0.553,0.447,1,1,1s1-0.447,1-1c0-2.754-1.246-5.219-3.2-6.871   C24.667,8.879,29.388,6.5,34.084,6.5c7.745,0,14.178,6.135,14.849,13.888c-1.021-0.072-2.552-0.109-4.083,0.124   c-0.546,0.083-0.921,0.593-0.838,1.139c0.075,0.495,0.501,0.85,0.987,0.85c0.05,0,0.101-0.004,0.151-0.012   c2.227-0.337,4.548-0.021,4.684-0.002C54.49,23.372,58,27.661,58,32.472C58,38.001,53.501,42.5,47.972,42.5H44   c-0.553,0-1,0.447-1,1s0.447,1,1,1h3.972C54.604,44.5,60,39.104,60,32.472C60,26.983,56.173,22.06,50.976,20.694z"></path>
<path d="M38.293,45.793L32,52.086V31.5c0-0.553-0.447-1-1-1s-1,0.447-1,1v20.586l-6.293-6.293c-0.391-0.391-1.023-0.391-1.414,0   s-0.391,1.023,0,1.414l7.999,7.999c0.092,0.093,0.203,0.166,0.326,0.217C30.74,55.474,30.87,55.5,31,55.5s0.26-0.026,0.382-0.077   c0.123-0.051,0.234-0.124,0.326-0.217l7.999-7.999c0.391-0.391,0.391-1.023,0-1.414S38.684,45.402,38.293,45.793z">
</symbol>
<symbol id="icon-heart" viewBox="0 0 51.997 51.997">
<path d="M51.911,16.242C51.152,7.888,45.239,1.827,37.839,1.827c-4.93,0-9.444,2.653-11.984,6.905
c-2.517-4.307-6.846-6.906-11.697-6.906c-7.399,0-13.313,6.061-14.071,14.415c-0.06,0.369-0.306,2.311,0.442,5.478
c1.078,4.568,3.568,8.723,7.199,12.013l18.115,16.439l18.426-16.438c3.631-3.291,6.121-7.445,7.199-12.014
C52.216,18.553,51.97,16.611,51.911,16.242z"/></path>
</symbol>
<symbol id="icon-alarm-clock" viewBox="0 0 58.153 58.153">
<path d="M40.076,29.153h-7.142c-0.364-1.399-1.459-2.494-2.858-2.858V16.153c0-0.553-0.448-1-1-1s-1,0.447-1,1v10.142
c-1.72,0.447-3,1.999-3,3.858c0,2.206,1.794,4,4,4c1.858,0,3.411-1.28,3.858-3h7.142c0.552,0,1-0.447,1-1
S40.629,29.153,40.076,29.153z M29.076,32.153c-1.103,0-2-0.897-2-2s0.897-2,2-2s2,0.897,2,2S30.179,32.153,29.076,32.153z"/>
<path d="M50.188,9.764l4.096,4.096c0.188,0.188,0.442,0.293,0.707,0.293s0.52-0.105,0.707-0.293c3.167-3.166,3.167-8.319,0-11.485
		s-8.319-3.166-11.485,0c-0.188,0.188-0.293,0.441-0.293,0.707s0.105,0.52,0.293,0.707l4.561,4.561l-1.699,1.699
		c-4.78-4.284-11.089-6.896-17.998-6.896s-13.218,2.612-17.998,6.896L9.379,8.35l4.561-4.561c0.188-0.188,0.293-0.441,0.293-0.707
		s-0.105-0.52-0.293-0.707c-3.166-3.166-8.318-3.166-11.485,0s-3.167,8.319,0,11.485c0.188,0.188,0.442,0.293,0.707,0.293
		s0.52-0.105,0.707-0.293l4.096-4.096l1.676,1.676c-4.679,4.857-7.565,11.453-7.565,18.713c0,9.898,5.357,18.564,13.321,23.265
		l-3.028,3.028c-0.391,0.391-0.391,1.023,0,1.414c0.195,0.195,0.451,0.293,0.707,0.293s0.512-0.098,0.707-0.293l3.45-3.45
		c3.578,1.754,7.597,2.743,11.843,2.743s8.265-0.989,11.843-2.743l3.45,3.45c0.195,0.195,0.451,0.293,0.707,0.293
		s0.512-0.098,0.707-0.293c0.391-0.391,0.391-1.023,0-1.414l-3.028-3.028c7.964-4.701,13.321-13.367,13.321-23.265
		c0-7.26-2.886-13.856-7.565-18.713L50.188,9.764z M54.283,3.789c2.146,2.146,2.362,5.502,0.649,7.893l-8.541-8.542
		C48.781,1.427,52.136,1.642,54.283,3.789z M3.22,11.681C1.507,9.291,1.723,5.935,3.869,3.789s5.502-2.361,7.892-0.649L3.22,11.681z
		 M29.076,55.153c-13.785,0-25-11.215-25-25s11.215-25,25-25s25,11.215,25,25S42.862,55.153,29.076,55.153z"/>
	<path d="M29.076,10.032c0.552,0,1-0.447,1-1v-1c0-0.553-0.448-1-1-1s-1,0.447-1,1v1C28.076,9.584,28.524,10.032,29.076,10.032z"/>
	<path d="M29.076,50.032c-0.552,0-1,0.447-1,1v1c0,0.553,0.448,1,1,1s1-0.447,1-1v-1C30.076,50.479,29.629,50.032,29.076,50.032z"/>
	<path d="M50.076,31.032h1c0.552,0,1-0.447,1-1s-0.448-1-1-1h-1c-0.552,0-1,0.447-1,1S49.524,31.032,50.076,31.032z"/>
	<path d="M8.076,29.032h-1c-0.552,0-1,0.447-1,1s0.448,1,1,1h1c0.552,0,1-0.447,1-1S8.629,29.032,8.076,29.032z"/>
	<path d="M43.926,13.768l-0.707,0.707c-0.391,0.391-0.391,1.023,0,1.414c0.195,0.195,0.451,0.293,0.707,0.293
		s0.512-0.098,0.707-0.293l0.707-0.707c0.391-0.391,0.391-1.023,0-1.414S44.316,13.377,43.926,13.768z"/>
	<path d="M13.52,44.174l-0.707,0.707c-0.391,0.391-0.391,1.023,0,1.414c0.195,0.195,0.451,0.293,0.707,0.293
		s0.512-0.098,0.707-0.293l0.707-0.707c0.391-0.391,0.391-1.023,0-1.414S13.911,43.784,13.52,44.174z"/>
	<path d="M44.633,44.174c-0.391-0.391-1.023-0.391-1.414,0s-0.391,1.023,0,1.414l0.707,0.707c0.195,0.195,0.451,0.293,0.707,0.293
		s0.512-0.098,0.707-0.293c0.391-0.391,0.391-1.023,0-1.414L44.633,44.174z"/>
	<path d="M14.227,13.768c-0.391-0.391-1.023-0.391-1.414,0s-0.391,1.023,0,1.414l0.707,0.707c0.195,0.195,0.451,0.293,0.707,0.293
		s0.512-0.098,0.707-0.293c0.391-0.391,0.391-1.023,0-1.414L14.227,13.768z"/></path>
</symbol>
<symbol id="icon-like" viewBox="0 0 57.947 57.947">
<path d="M28.947,56.486c15.685-11.277,23.532-21.592,27.222-29.46c4.311-9.193,0.561-20.589-8.845-24.413
C36.268-1.88,28.947,8.486,28.947,8.486S21.678-1.907,10.623,2.588C1.217,6.412-2.533,17.808,1.778,27.001
C5.468,34.868,13.262,45.21,28.947,56.486z"/>
</symbol>
<symbol id="icon-collection" viewBox="0 0 455 455">
<polygon points="455,212.5 242.5,212.5 242.5,0 212.5,0 212.5,212.5 0,212.5 0,242.5 212.5,242.5 212.5,455 242.5,455 242.5,242.5   455,242.5 ">
</symbol>
<symbol id="icon-download" viewBox="0 0 512 512"> 
<path d="M446.312,208.813C447.031,203.25,448,197.75,448,192c0-70.688-57.281-128-128-128c-41.812,0-78.594,20.344-101.938,51.375
C209.656,113.344,201,112,192,112c-61.875,0-112,50.125-112,112c0,1.75,0.438,3.313,0.5,5.063C34.094,242.719,0,285.156,0,336
c0,61.875,50.125,112,112,112h272c70.719,0,128-57.281,128-128C512,272.062,485.344,230.75,446.312,208.813z M256,384l-96-96h64
v-96h64v96h64L256,384z"/>
</symbol>
<symbol id="icon-behance" viewBox="0 0 37 32">
<path class="path1" d="M33 6.054h-9.125v2.214h9.125v-2.214zM28.5 13.661q-1.607 0-2.607 0.938t-1.107 2.545h7.286q-0.321-3.482-3.571-3.482zM28.786 24.107q1.125 0 2.179-0.571t1.357-1.554h3.946q-1.786 5.482-7.625 5.482-3.821 0-6.080-2.357t-2.259-6.196q0-3.714 2.33-6.17t6.009-2.455q2.464 0 4.295 1.214t2.732 3.196 0.902 4.429q0 0.304-0.036 0.839h-11.75q0 1.982 1.027 3.063t2.973 1.080zM4.946 23.214h5.286q3.661 0 3.661-2.982 0-3.214-3.554-3.214h-5.393v6.196zM4.946 13.625h5.018q1.393 0 2.205-0.652t0.813-2.027q0-2.571-3.393-2.571h-4.643v5.25zM0 4.536h10.607q1.554 0 2.768 0.25t2.259 0.848 1.607 1.723 0.563 2.75q0 3.232-3.071 4.696 2.036 0.571 3.071 2.054t1.036 3.643q0 1.339-0.438 2.438t-1.179 1.848-1.759 1.268-2.161 0.75-2.393 0.232h-10.911v-22.5z"></path>
</symbol>
<symbol id="icon-deviantart" viewBox="0 0 18 32">
<path class="path1" d="M18.286 5.411l-5.411 10.393 0.429 0.554h4.982v7.411h-9.054l-0.786 0.536-2.536 4.875-0.536 0.536h-5.375v-5.411l5.411-10.411-0.429-0.536h-4.982v-7.411h9.054l0.786-0.536 2.536-4.875 0.536-0.536h5.375v5.411z"></path>
</symbol>
<symbol id="icon-medium" viewBox="0 0 32 32">
<path class="path1" d="M10.661 7.518v20.946q0 0.446-0.223 0.759t-0.652 0.313q-0.304 0-0.589-0.143l-8.304-4.161q-0.375-0.179-0.634-0.598t-0.259-0.83v-20.357q0-0.357 0.179-0.607t0.518-0.25q0.25 0 0.786 0.268l9.125 4.571q0.054 0.054 0.054 0.089zM11.804 9.321l9.536 15.464-9.536-4.75v-10.714zM32 9.643v18.821q0 0.446-0.25 0.723t-0.679 0.277-0.839-0.232l-7.875-3.929zM31.946 7.5q0 0.054-4.58 7.491t-5.366 8.705l-6.964-11.321 5.786-9.411q0.304-0.5 0.929-0.5 0.25 0 0.464 0.107l9.661 4.821q0.071 0.036 0.071 0.107z"></path>
</symbol>
<symbol id="icon-slideshare" viewBox="0 0 32 32">
<path class="path1" d="M15.589 13.214q0 1.482-1.134 2.545t-2.723 1.063-2.723-1.063-1.134-2.545q0-1.5 1.134-2.554t2.723-1.054 2.723 1.054 1.134 2.554zM24.554 13.214q0 1.482-1.125 2.545t-2.732 1.063q-1.589 0-2.723-1.063t-1.134-2.545q0-1.5 1.134-2.554t2.723-1.054q1.607 0 2.732 1.054t1.125 2.554zM28.571 16.429v-11.911q0-1.554-0.571-2.205t-1.982-0.652h-19.857q-1.482 0-2.009 0.607t-0.527 2.25v12.018q0.768 0.411 1.58 0.714t1.446 0.5 1.446 0.33 1.268 0.196 1.25 0.071 1.045 0.009 1.009-0.036 0.795-0.036q1.214-0.018 1.696 0.482 0.107 0.107 0.179 0.161 0.464 0.446 1.089 0.911 0.125-1.625 2.107-1.554 0.089 0 0.652 0.027t0.768 0.036 0.813 0.018 0.946-0.018 0.973-0.080 1.089-0.152 1.107-0.241 1.196-0.348 1.205-0.482 1.286-0.616zM31.482 16.339q-2.161 2.661-6.643 4.5 1.5 5.089-0.411 8.304-1.179 2.018-3.268 2.643-1.857 0.571-3.25-0.268-1.536-0.911-1.464-2.929l-0.018-5.821v-0.018q-0.143-0.036-0.438-0.107t-0.42-0.089l-0.018 6.036q0.071 2.036-1.482 2.929-1.411 0.839-3.268 0.268-2.089-0.643-3.25-2.679-1.875-3.214-0.393-8.268-4.482-1.839-6.643-4.5-0.446-0.661-0.071-1.125t1.071 0.018q0.054 0.036 0.196 0.125t0.196 0.143v-12.393q0-1.286 0.839-2.196t2.036-0.911h22.446q1.196 0 2.036 0.911t0.839 2.196v12.393l0.375-0.268q0.696-0.482 1.071-0.018t-0.071 1.125z"></path>
</symbol>
<symbol id="icon-snapchat-ghost" viewBox="0 0 30 32">
<path class="path1" d="M15.143 2.286q2.393-0.018 4.295 1.223t2.92 3.438q0.482 1.036 0.482 3.196 0 0.839-0.161 3.411 0.25 0.125 0.5 0.125 0.321 0 0.911-0.241t0.911-0.241q0.518 0 1 0.321t0.482 0.821q0 0.571-0.563 0.964t-1.232 0.563-1.232 0.518-0.563 0.848q0 0.268 0.214 0.768 0.661 1.464 1.83 2.679t2.58 1.804q0.5 0.214 1.429 0.411 0.5 0.107 0.5 0.625 0 1.25-3.911 1.839-0.125 0.196-0.196 0.696t-0.25 0.83-0.589 0.33q-0.357 0-1.107-0.116t-1.143-0.116q-0.661 0-1.107 0.089-0.571 0.089-1.125 0.402t-1.036 0.679-1.036 0.723-1.357 0.598-1.768 0.241q-0.929 0-1.723-0.241t-1.339-0.598-1.027-0.723-1.036-0.679-1.107-0.402q-0.464-0.089-1.125-0.089-0.429 0-1.17 0.134t-1.045 0.134q-0.446 0-0.625-0.33t-0.25-0.848-0.196-0.714q-3.911-0.589-3.911-1.839 0-0.518 0.5-0.625 0.929-0.196 1.429-0.411 1.393-0.571 2.58-1.804t1.83-2.679q0.214-0.5 0.214-0.768 0-0.5-0.563-0.848t-1.241-0.527-1.241-0.563-0.563-0.938q0-0.482 0.464-0.813t0.982-0.33q0.268 0 0.857 0.232t0.946 0.232q0.321 0 0.571-0.125-0.161-2.536-0.161-3.393 0-2.179 0.482-3.214 1.143-2.446 3.071-3.536t4.714-1.125z"></path>
</symbol>
<symbol id="icon-yelp" viewBox="0 0 27 32">
<path class="path1" d="M13.804 23.554v2.268q-0.018 5.214-0.107 5.446-0.214 0.571-0.911 0.714-0.964 0.161-3.241-0.679t-2.902-1.589q-0.232-0.268-0.304-0.643-0.018-0.214 0.071-0.464 0.071-0.179 0.607-0.839t3.232-3.857q0.018 0 1.071-1.25 0.268-0.339 0.705-0.438t0.884 0.063q0.429 0.179 0.67 0.518t0.223 0.75zM11.143 19.071q-0.054 0.982-0.929 1.25l-2.143 0.696q-4.911 1.571-5.214 1.571-0.625-0.036-0.964-0.643-0.214-0.446-0.304-1.339-0.143-1.357 0.018-2.973t0.536-2.223 1-0.571q0.232 0 3.607 1.375 1.25 0.518 2.054 0.839l1.5 0.607q0.411 0.161 0.634 0.545t0.205 0.866zM25.893 24.375q-0.125 0.964-1.634 2.875t-2.42 2.268q-0.661 0.25-1.125-0.125-0.25-0.179-3.286-5.125l-0.839-1.375q-0.25-0.375-0.205-0.821t0.348-0.821q0.625-0.768 1.482-0.464 0.018 0.018 2.125 0.714 3.625 1.179 4.321 1.42t0.839 0.366q0.5 0.393 0.393 1.089zM13.893 13.089q0.089 1.821-0.964 2.179-1.036 0.304-2.036-1.268l-6.75-10.679q-0.143-0.625 0.339-1.107 0.732-0.768 3.705-1.598t4.009-0.563q0.714 0.179 0.875 0.804 0.054 0.321 0.393 5.455t0.429 6.777zM25.714 15.018q0.054 0.696-0.464 1.054-0.268 0.179-5.875 1.536-1.196 0.268-1.625 0.411l0.018-0.036q-0.411 0.107-0.821-0.071t-0.661-0.571q-0.536-0.839 0-1.554 0.018-0.018 1.339-1.821 2.232-3.054 2.679-3.643t0.607-0.696q0.5-0.339 1.161-0.036 0.857 0.411 2.196 2.384t1.446 2.991v0.054z"></path>
</symbol>
<symbol id="icon-vine" viewBox="0 0 27 32">
<path class="path1" d="M26.732 14.768v3.536q-1.804 0.411-3.536 0.411-1.161 2.429-2.955 4.839t-3.241 3.848-2.286 1.902q-1.429 0.804-2.893-0.054-0.5-0.304-1.080-0.777t-1.518-1.491-1.83-2.295-1.92-3.286-1.884-4.357-1.634-5.616-1.259-6.964h5.054q0.464 3.893 1.25 7.116t1.866 5.661 2.17 4.205 2.5 3.482q3.018-3.018 5.125-7.25-2.536-1.286-3.982-3.929t-1.446-5.946q0-3.429 1.857-5.616t5.071-2.188q3.179 0 4.875 1.884t1.696 5.313q0 2.839-1.036 5.107-0.125 0.018-0.348 0.054t-0.821 0.036-1.125-0.107-1.107-0.455-0.902-0.92q0.554-1.839 0.554-3.286 0-1.554-0.518-2.357t-1.411-0.804q-0.946 0-1.518 0.884t-0.571 2.509q0 3.321 1.875 5.241t4.768 1.92q1.107 0 2.161-0.25z"></path>
</symbol>
<symbol id="icon-vk" viewBox="0 0 35 32">
<path class="path1" d="M34.232 9.286q0.411 1.143-2.679 5.25-0.429 0.571-1.161 1.518-1.393 1.786-1.607 2.339-0.304 0.732 0.25 1.446 0.304 0.375 1.446 1.464h0.018l0.071 0.071q2.518 2.339 3.411 3.946 0.054 0.089 0.116 0.223t0.125 0.473-0.009 0.607-0.446 0.491-1.054 0.223l-4.571 0.071q-0.429 0.089-1-0.089t-0.929-0.393l-0.357-0.214q-0.536-0.375-1.25-1.143t-1.223-1.384-1.089-1.036-1.009-0.277q-0.054 0.018-0.143 0.063t-0.304 0.259-0.384 0.527-0.304 0.929-0.116 1.384q0 0.268-0.063 0.491t-0.134 0.33l-0.071 0.089q-0.321 0.339-0.946 0.393h-2.054q-1.268 0.071-2.607-0.295t-2.348-0.946-1.839-1.179-1.259-1.027l-0.446-0.429q-0.179-0.179-0.491-0.536t-1.277-1.625-1.893-2.696-2.188-3.768-2.33-4.857q-0.107-0.286-0.107-0.482t0.054-0.286l0.071-0.107q0.268-0.339 1.018-0.339l4.893-0.036q0.214 0.036 0.411 0.116t0.286 0.152l0.089 0.054q0.286 0.196 0.429 0.571 0.357 0.893 0.821 1.848t0.732 1.455l0.286 0.518q0.518 1.071 1 1.857t0.866 1.223 0.741 0.688 0.607 0.25 0.482-0.089q0.036-0.018 0.089-0.089t0.214-0.393 0.241-0.839 0.17-1.446 0-2.232q-0.036-0.714-0.161-1.304t-0.25-0.821l-0.107-0.214q-0.446-0.607-1.518-0.768-0.232-0.036 0.089-0.429 0.304-0.339 0.679-0.536 0.946-0.464 4.268-0.429 1.464 0.018 2.411 0.232 0.357 0.089 0.598 0.241t0.366 0.429 0.188 0.571 0.063 0.813-0.018 0.982-0.045 1.259-0.027 1.473q0 0.196-0.018 0.75t-0.009 0.857 0.063 0.723 0.205 0.696 0.402 0.438q0.143 0.036 0.304 0.071t0.464-0.196 0.679-0.616 0.929-1.196 1.214-1.92q1.071-1.857 1.911-4.018 0.071-0.179 0.179-0.313t0.196-0.188l0.071-0.054 0.089-0.045t0.232-0.054 0.357-0.009l5.143-0.036q0.696-0.089 1.143 0.045t0.554 0.295z"></path>
</symbol>
<symbol id="icon-search" viewBox="0 0 56.966 56.966">
<path d="M55.146,51.887L41.588,37.786c3.486-4.144,5.396-9.358,5.396-14.786c0-12.682-10.318-23-23-23s-23,10.318-23,23
s10.318,23,23,23c4.761,0,9.298-1.436,13.177-4.162l13.661,14.208c0.571,0.593,1.339,0.92,2.162,0.92
c0.779,0,1.518-0.297,2.079-0.837C56.255,54.982,56.293,53.08,55.146,51.887z M23.984,6c9.374,0,17,7.626,17,17s-7.626,17-17,17
s-17-7.626-17-17S14.61,6,23.984,6z"></path>
</symbol>
<symbol id="icon-envelope-o" viewBox="0 0 32 32">
<path class="path1" d="M29.714 26.857v-13.714q-0.571 0.643-1.232 1.179-4.786 3.679-7.607 6.036-0.911 0.768-1.482 1.196t-1.545 0.866-1.83 0.438h-0.036q-0.857 0-1.83-0.438t-1.545-0.866-1.482-1.196q-2.821-2.357-7.607-6.036-0.661-0.536-1.232-1.179v13.714q0 0.232 0.17 0.402t0.402 0.17h26.286q0.232 0 0.402-0.17t0.17-0.402zM29.714 8.089v-0.438t-0.009-0.232-0.054-0.223-0.098-0.161-0.161-0.134-0.25-0.045h-26.286q-0.232 0-0.402 0.17t-0.17 0.402q0 3 2.625 5.071 3.446 2.714 7.161 5.661 0.107 0.089 0.625 0.527t0.821 0.67 0.795 0.563 0.902 0.491 0.768 0.161h0.036q0.357 0 0.768-0.161t0.902-0.491 0.795-0.563 0.821-0.67 0.625-0.527q3.714-2.946 7.161-5.661 0.964-0.768 1.795-2.063t0.83-2.348zM32 7.429v19.429q0 1.179-0.839 2.018t-2.018 0.839h-26.286q-1.179 0-2.018-0.839t-0.839-2.018v-19.429q0-1.179 0.839-2.018t2.018-0.839h26.286q1.179 0 2.018 0.839t0.839 2.018z"></path>
</symbol>
<symbol id="icon-close" viewBox="0 0 612 612">
<polygon points="612,36.004 576.521,0.603 306,270.608 35.478,0.603 0,36.004 270.522,306.011 0,575.997 35.478,611.397 
306,341.411 576.521,611.397 612,575.997 341.459,306.011"/>
</symbol>
<symbol id="icon-angle-down" viewBox="0 0 21 32">
<path class="path1" d="M19.196 13.143q0 0.232-0.179 0.411l-8.321 8.321q-0.179 0.179-0.411 0.179t-0.411-0.179l-8.321-8.321q-0.179-0.179-0.179-0.411t0.179-0.411l0.893-0.893q0.179-0.179 0.411-0.179t0.411 0.179l7.018 7.018 7.018-7.018q0.179-0.179 0.411-0.179t0.411 0.179l0.893 0.893q0.179 0.179 0.179 0.411z"></path>
</symbol>
<symbol id="icon-folder-open" viewBox="0 0 34 32">
<path class="path1" d="M33.554 17q0 0.554-0.554 1.179l-6 7.071q-0.768 0.911-2.152 1.545t-2.563 0.634h-19.429q-0.607 0-1.080-0.232t-0.473-0.768q0-0.554 0.554-1.179l6-7.071q0.768-0.911 2.152-1.545t2.563-0.634h19.429q0.607 0 1.080 0.232t0.473 0.768zM27.429 10.857v2.857h-14.857q-1.679 0-3.518 0.848t-2.929 2.134l-6.107 7.179q0-0.071-0.009-0.223t-0.009-0.223v-17.143q0-1.643 1.179-2.821t2.821-1.179h5.714q1.643 0 2.821 1.179t1.179 2.821v0.571h9.714q1.643 0 2.821 1.179t1.179 2.821z"></path>
</symbol>
<symbol id="icon-twitter" viewBox="0 0 30 32">
<path class="path1" d="M28.929 7.286q-1.196 1.75-2.893 2.982 0.018 0.25 0.018 0.75 0 2.321-0.679 4.634t-2.063 4.437-3.295 3.759-4.607 2.607-5.768 0.973q-4.839 0-8.857-2.589 0.625 0.071 1.393 0.071 4.018 0 7.161-2.464-1.875-0.036-3.357-1.152t-2.036-2.848q0.589 0.089 1.089 0.089 0.768 0 1.518-0.196-2-0.411-3.313-1.991t-1.313-3.67v-0.071q1.214 0.679 2.607 0.732-1.179-0.786-1.875-2.054t-0.696-2.75q0-1.571 0.786-2.911 2.161 2.661 5.259 4.259t6.634 1.777q-0.143-0.679-0.143-1.321 0-2.393 1.688-4.080t4.080-1.688q2.5 0 4.214 1.821 1.946-0.375 3.661-1.393-0.661 2.054-2.536 3.179 1.661-0.179 3.321-0.893z"></path>
</symbol>
<symbol id="icon-facebook" viewBox="0 0 19 32">
<path class="path1" d="M17.125 0.214v4.714h-2.804q-1.536 0-2.071 0.643t-0.536 1.929v3.375h5.232l-0.696 5.286h-4.536v13.554h-5.464v-13.554h-4.554v-5.286h4.554v-3.893q0-3.321 1.857-5.152t4.946-1.83q2.625 0 4.071 0.214z"></path>
</symbol>
<symbol id="icon-github" viewBox="0 0 27 32">
<path class="path1" d="M13.714 2.286q3.732 0 6.884 1.839t4.991 4.991 1.839 6.884q0 4.482-2.616 8.063t-6.759 4.955q-0.482 0.089-0.714-0.125t-0.232-0.536q0-0.054 0.009-1.366t0.009-2.402q0-1.732-0.929-2.536 1.018-0.107 1.83-0.321t1.679-0.696 1.446-1.188 0.946-1.875 0.366-2.688q0-2.125-1.411-3.679 0.661-1.625-0.143-3.643-0.5-0.161-1.446 0.196t-1.643 0.786l-0.679 0.429q-1.661-0.464-3.429-0.464t-3.429 0.464q-0.286-0.196-0.759-0.482t-1.491-0.688-1.518-0.241q-0.804 2.018-0.143 3.643-1.411 1.554-1.411 3.679 0 1.518 0.366 2.679t0.938 1.875 1.438 1.196 1.679 0.696 1.83 0.321q-0.696 0.643-0.875 1.839-0.375 0.179-0.804 0.268t-1.018 0.089-1.17-0.384-0.991-1.116q-0.339-0.571-0.866-0.929t-0.884-0.429l-0.357-0.054q-0.375 0-0.518 0.080t-0.089 0.205 0.161 0.25 0.232 0.214l0.125 0.089q0.393 0.179 0.777 0.679t0.563 0.911l0.179 0.411q0.232 0.679 0.786 1.098t1.196 0.536 1.241 0.125 0.991-0.063l0.411-0.071q0 0.679 0.009 1.58t0.009 0.973q0 0.321-0.232 0.536t-0.714 0.125q-4.143-1.375-6.759-4.955t-2.616-8.063q0-3.732 1.839-6.884t4.991-4.991 6.884-1.839zM5.196 21.982q0.054-0.125-0.125-0.214-0.179-0.054-0.232 0.036-0.054 0.125 0.125 0.214 0.161 0.107 0.232-0.036zM5.75 22.589q0.125-0.089-0.036-0.286-0.179-0.161-0.286-0.054-0.125 0.089 0.036 0.286 0.179 0.179 0.286 0.054zM6.286 23.393q0.161-0.125 0-0.339-0.143-0.232-0.304-0.107-0.161 0.089 0 0.321t0.304 0.125zM7.036 24.143q0.143-0.143-0.071-0.339-0.214-0.214-0.357-0.054-0.161 0.143 0.071 0.339 0.214 0.214 0.357 0.054zM8.054 24.589q0.054-0.196-0.232-0.286-0.268-0.071-0.339 0.125t0.232 0.268q0.268 0.107 0.339-0.107zM9.179 24.679q0-0.232-0.304-0.196-0.286 0-0.286 0.196 0 0.232 0.304 0.196 0.286 0 0.286-0.196zM10.214 24.5q-0.036-0.196-0.321-0.161-0.286 0.054-0.25 0.268t0.321 0.143 0.25-0.25z"></path>
</symbol>
<symbol id="icon-bars" viewBox="0 0 22 20.628">                     
<rect id="XMLID_4_" x="0" y="0.035" width="26" height="2.584"/>
<rect id="XMLID_6_" y="9.035" width="26" height="2.584"/>
<rect id="XMLID_5_" y="18.035" width="26" height="2.584"/>
</symbol>
<symbol id="icon-google-plus" viewBox="0 0 41 32">
<path class="path1" d="M25.661 16.304q0 3.714-1.554 6.616t-4.429 4.536-6.589 1.634q-2.661 0-5.089-1.036t-4.179-2.786-2.786-4.179-1.036-5.089 1.036-5.089 2.786-4.179 4.179-2.786 5.089-1.036q5.107 0 8.768 3.429l-3.554 3.411q-2.089-2.018-5.214-2.018-2.196 0-4.063 1.107t-2.955 3.009-1.089 4.152 1.089 4.152 2.955 3.009 4.063 1.107q1.482 0 2.723-0.411t2.045-1.027 1.402-1.402 0.875-1.482 0.384-1.321h-7.429v-4.5h12.357q0.214 1.125 0.214 2.179zM41.143 14.125v3.75h-3.732v3.732h-3.75v-3.732h-3.732v-3.75h3.732v-3.732h3.75v3.732h3.732z"></path>
</symbol>
<symbol id="icon-linkedin" viewBox="0 0 27 32">
<path class="path1" d="M6.232 11.161v17.696h-5.893v-17.696h5.893zM6.607 5.696q0.018 1.304-0.902 2.179t-2.42 0.875h-0.036q-1.464 0-2.357-0.875t-0.893-2.179q0-1.321 0.92-2.188t2.402-0.866 2.375 0.866 0.911 2.188zM27.429 18.714v10.143h-5.875v-9.464q0-1.875-0.723-2.938t-2.259-1.063q-1.125 0-1.884 0.616t-1.134 1.527q-0.196 0.536-0.196 1.446v9.875h-5.875q0.036-7.125 0.036-11.554t-0.018-5.286l-0.018-0.857h5.875v2.571h-0.036q0.357-0.571 0.732-1t1.009-0.929 1.554-0.777 2.045-0.277q3.054 0 4.911 2.027t1.857 5.938z"></path>
</symbol>
<symbol id="icon-quote-right" viewBox="0 0 30 32">
<path class="path1" d="M13.714 5.714v12.571q0 1.857-0.723 3.545t-1.955 2.92-2.92 1.955-3.545 0.723h-1.143q-0.464 0-0.804-0.339t-0.339-0.804v-2.286q0-0.464 0.339-0.804t0.804-0.339h1.143q1.893 0 3.232-1.339t1.339-3.232v-0.571q0-0.714-0.5-1.214t-1.214-0.5h-4q-1.429 0-2.429-1t-1-2.429v-6.857q0-1.429 1-2.429t2.429-1h6.857q1.429 0 2.429 1t1 2.429zM29.714 5.714v12.571q0 1.857-0.723 3.545t-1.955 2.92-2.92 1.955-3.545 0.723h-1.143q-0.464 0-0.804-0.339t-0.339-0.804v-2.286q0-0.464 0.339-0.804t0.804-0.339h1.143q1.893 0 3.232-1.339t1.339-3.232v-0.571q0-0.714-0.5-1.214t-1.214-0.5h-4q-1.429 0-2.429-1t-1-2.429v-6.857q0-1.429 1-2.429t2.429-1h6.857q1.429 0 2.429 1t1 2.429z"></path>
</symbol>
<symbol id="icon-mail-reply" viewBox="0 0 32 32">
<path class="path1" d="M32 20q0 2.964-2.268 8.054-0.054 0.125-0.188 0.429t-0.241 0.536-0.232 0.393q-0.214 0.304-0.5 0.304-0.268 0-0.42-0.179t-0.152-0.446q0-0.161 0.045-0.473t0.045-0.42q0.089-1.214 0.089-2.196 0-1.804-0.313-3.232t-0.866-2.473-1.429-1.804-1.884-1.241-2.375-0.759-2.75-0.384-3.134-0.107h-4v4.571q0 0.464-0.339 0.804t-0.804 0.339-0.804-0.339l-9.143-9.143q-0.339-0.339-0.339-0.804t0.339-0.804l9.143-9.143q0.339-0.339 0.804-0.339t0.804 0.339 0.339 0.804v4.571h4q12.732 0 15.625 7.196 0.946 2.393 0.946 5.946z"></path>
</symbol>
<symbol id="icon-youtube" viewBox="0 0 27 32">
<path class="path1" d="M17.339 22.214v3.768q0 1.196-0.696 1.196-0.411 0-0.804-0.393v-5.375q0.393-0.393 0.804-0.393 0.696 0 0.696 1.196zM23.375 22.232v0.821h-1.607v-0.821q0-1.214 0.804-1.214t0.804 1.214zM6.125 18.339h1.911v-1.679h-5.571v1.679h1.875v10.161h1.786v-10.161zM11.268 28.5h1.589v-8.821h-1.589v6.75q-0.536 0.75-1.018 0.75-0.321 0-0.375-0.375-0.018-0.054-0.018-0.625v-6.5h-1.589v6.982q0 0.875 0.143 1.304 0.214 0.661 1.036 0.661 0.857 0 1.821-1.089v0.964zM18.929 25.857v-3.518q0-1.304-0.161-1.768-0.304-1-1.268-1-0.893 0-1.661 0.964v-3.875h-1.589v11.839h1.589v-0.857q0.804 0.982 1.661 0.982 0.964 0 1.268-0.982 0.161-0.482 0.161-1.786zM24.964 25.679v-0.232h-1.625q0 0.911-0.036 1.089-0.125 0.643-0.714 0.643-0.821 0-0.821-1.232v-1.554h3.196v-1.839q0-1.411-0.482-2.071-0.696-0.911-1.893-0.911-1.214 0-1.911 0.911-0.5 0.661-0.5 2.071v3.089q0 1.411 0.518 2.071 0.696 0.911 1.929 0.911 1.286 0 1.929-0.946 0.321-0.482 0.375-0.964 0.036-0.161 0.036-1.036zM14.107 9.375v-3.75q0-1.232-0.768-1.232t-0.768 1.232v3.75q0 1.25 0.768 1.25t0.768-1.25zM26.946 22.786q0 4.179-0.464 6.25-0.25 1.054-1.036 1.768t-1.821 0.821q-3.286 0.375-9.911 0.375t-9.911-0.375q-1.036-0.107-1.83-0.821t-1.027-1.768q-0.464-2-0.464-6.25 0-4.179 0.464-6.25 0.25-1.054 1.036-1.768t1.839-0.839q3.268-0.357 9.893-0.357t9.911 0.357q1.036 0.125 1.83 0.839t1.027 1.768q0.464 2 0.464 6.25zM9.125 0h1.821l-2.161 7.125v4.839h-1.786v-4.839q-0.25-1.321-1.089-3.786-0.661-1.839-1.161-3.339h1.893l1.268 4.696zM15.732 5.946v3.125q0 1.446-0.5 2.107-0.661 0.911-1.893 0.911-1.196 0-1.875-0.911-0.5-0.679-0.5-2.107v-3.125q0-1.429 0.5-2.089 0.679-0.911 1.875-0.911 1.232 0 1.893 0.911 0.5 0.661 0.5 2.089zM21.714 3.054v8.911h-1.625v-0.982q-0.946 1.107-1.839 1.107-0.821 0-1.054-0.661-0.143-0.429-0.143-1.339v-7.036h1.625v6.554q0 0.589 0.018 0.625 0.054 0.393 0.375 0.393 0.482 0 1.018-0.768v-6.804h1.625z"></path>
</symbol>
<symbol id="icon-dropbox" viewBox="0 0 32 32">
<path class="path1" d="M7.179 12.625l8.821 5.446-6.107 5.089-8.75-5.696zM24.786 22.536v1.929l-8.75 5.232v0.018l-0.018-0.018-0.018 0.018v-0.018l-8.732-5.232v-1.929l2.625 1.714 6.107-5.071v-0.036l0.018 0.018 0.018-0.018v0.036l6.125 5.071zM9.893 2.107l6.107 5.089-8.821 5.429-6.036-4.821zM24.821 12.625l6.036 4.839-8.732 5.696-6.125-5.089zM22.125 2.107l8.732 5.696-6.036 4.821-8.821-5.429z"></path>
</symbol>
<symbol id="icon-instagram" viewBox="0 0 27 32">
<path class="path1" d="M18.286 16q0-1.893-1.339-3.232t-3.232-1.339-3.232 1.339-1.339 3.232 1.339 3.232 3.232 1.339 3.232-1.339 1.339-3.232zM20.75 16q0 2.929-2.054 4.982t-4.982 2.054-4.982-2.054-2.054-4.982 2.054-4.982 4.982-2.054 4.982 2.054 2.054 4.982zM22.679 8.679q0 0.679-0.482 1.161t-1.161 0.482-1.161-0.482-0.482-1.161 0.482-1.161 1.161-0.482 1.161 0.482 0.482 1.161zM13.714 4.75q-0.125 0-1.366-0.009t-1.884 0-1.723 0.054-1.839 0.179-1.277 0.33q-0.893 0.357-1.571 1.036t-1.036 1.571q-0.196 0.518-0.33 1.277t-0.179 1.839-0.054 1.723 0 1.884 0.009 1.366-0.009 1.366 0 1.884 0.054 1.723 0.179 1.839 0.33 1.277q0.357 0.893 1.036 1.571t1.571 1.036q0.518 0.196 1.277 0.33t1.839 0.179 1.723 0.054 1.884 0 1.366-0.009 1.366 0.009 1.884 0 1.723-0.054 1.839-0.179 1.277-0.33q0.893-0.357 1.571-1.036t1.036-1.571q0.196-0.518 0.33-1.277t0.179-1.839 0.054-1.723 0-1.884-0.009-1.366 0.009-1.366 0-1.884-0.054-1.723-0.179-1.839-0.33-1.277q-0.357-0.893-1.036-1.571t-1.571-1.036q-0.518-0.196-1.277-0.33t-1.839-0.179-1.723-0.054-1.884 0-1.366 0.009zM27.429 16q0 4.089-0.089 5.661-0.179 3.714-2.214 5.75t-5.75 2.214q-1.571 0.089-5.661 0.089t-5.661-0.089q-3.714-0.179-5.75-2.214t-2.214-5.75q-0.089-1.571-0.089-5.661t0.089-5.661q0.179-3.714 2.214-5.75t5.75-2.214q1.571-0.089 5.661-0.089t5.661 0.089q3.714 0.179 5.75 2.214t2.214 5.75q0.089 1.571 0.089 5.661z"></path>
</symbol>
<symbol id="icon-flickr" viewBox="0 0 27 32">
<path class="path1" d="M22.286 2.286q2.125 0 3.634 1.509t1.509 3.634v17.143q0 2.125-1.509 3.634t-3.634 1.509h-17.143q-2.125 0-3.634-1.509t-1.509-3.634v-17.143q0-2.125 1.509-3.634t3.634-1.509h17.143zM12.464 16q0-1.571-1.107-2.679t-2.679-1.107-2.679 1.107-1.107 2.679 1.107 2.679 2.679 1.107 2.679-1.107 1.107-2.679zM22.536 16q0-1.571-1.107-2.679t-2.679-1.107-2.679 1.107-1.107 2.679 1.107 2.679 2.679 1.107 2.679-1.107 1.107-2.679z"></path>
</symbol>
<symbol id="icon-tumblr" viewBox="0 0 19 32">
<path class="path1" d="M16.857 23.732l1.429 4.232q-0.411 0.625-1.982 1.179t-3.161 0.571q-1.857 0.036-3.402-0.464t-2.545-1.321-1.696-1.893-0.991-2.143-0.295-2.107v-9.714h-3v-3.839q1.286-0.464 2.304-1.241t1.625-1.607 1.036-1.821 0.607-1.768 0.268-1.58q0.018-0.089 0.080-0.152t0.134-0.063h4.357v7.571h5.946v4.5h-5.964v9.25q0 0.536 0.116 1t0.402 0.938 0.884 0.741 1.455 0.25q1.393-0.036 2.393-0.518z"></path>
</symbol>
<symbol id="icon-dribbble" viewBox="0 0 27 32">
<path class="path1" d="M18.286 26.786q-0.75-4.304-2.5-8.893h-0.036l-0.036 0.018q-0.286 0.107-0.768 0.295t-1.804 0.875-2.446 1.464-2.339 2.045-1.839 2.643l-0.268-0.196q3.286 2.679 7.464 2.679 2.357 0 4.571-0.929zM14.982 15.946q-0.375-0.875-0.946-1.982-5.554 1.661-12.018 1.661-0.018 0.125-0.018 0.375 0 2.214 0.786 4.223t2.214 3.598q0.893-1.589 2.205-2.973t2.545-2.223 2.33-1.446 1.777-0.857l0.661-0.232q0.071-0.018 0.232-0.063t0.232-0.080zM13.071 12.161q-2.143-3.804-4.357-6.75-2.464 1.161-4.179 3.321t-2.286 4.857q5.393 0 10.821-1.429zM25.286 17.857q-3.75-1.071-7.304-0.518 1.554 4.268 2.286 8.375 1.982-1.339 3.304-3.384t1.714-4.473zM10.911 4.625q-0.018 0-0.036 0.018 0.018-0.018 0.036-0.018zM21.446 7.214q-3.304-2.929-7.732-2.929-1.357 0-2.768 0.339 2.339 3.036 4.393 6.821 1.232-0.464 2.321-1.080t1.723-1.098 1.17-1.018 0.67-0.723zM25.429 15.875q-0.054-4.143-2.661-7.321l-0.018 0.018q-0.161 0.214-0.339 0.438t-0.777 0.795-1.268 1.080-1.786 1.161-2.348 1.152q0.446 0.946 0.786 1.696 0.036 0.107 0.116 0.313t0.134 0.295q0.643-0.089 1.33-0.125t1.313-0.036 1.232 0.027 1.143 0.071 1.009 0.098 0.857 0.116 0.652 0.107 0.446 0.080zM27.429 16q0 3.732-1.839 6.884t-4.991 4.991-6.884 1.839-6.884-1.839-4.991-4.991-1.839-6.884 1.839-6.884 4.991-4.991 6.884-1.839 6.884 1.839 4.991 4.991 1.839 6.884z"></path>
</symbol>
<symbol id="icon-skype" viewBox="0 0 27 32">
<path class="path1" d="M20.946 18.982q0-0.893-0.348-1.634t-0.866-1.223-1.304-0.875-1.473-0.607-1.563-0.411l-1.857-0.429q-0.536-0.125-0.786-0.188t-0.625-0.205-0.536-0.286-0.295-0.375-0.134-0.536q0-1.375 2.571-1.375 0.768 0 1.375 0.214t0.964 0.509 0.679 0.598 0.714 0.518 0.857 0.214q0.839 0 1.348-0.571t0.509-1.375q0-0.982-1-1.777t-2.536-1.205-3.25-0.411q-1.214 0-2.357 0.277t-2.134 0.839-1.589 1.554-0.598 2.295q0 1.089 0.339 1.902t1 1.348 1.429 0.866 1.839 0.58l2.607 0.643q1.607 0.393 2 0.643 0.571 0.357 0.571 1.071 0 0.696-0.714 1.152t-1.875 0.455q-0.911 0-1.634-0.286t-1.161-0.688-0.813-0.804-0.821-0.688-0.964-0.286q-0.893 0-1.348 0.536t-0.455 1.339q0 1.643 2.179 2.813t5.196 1.17q1.304 0 2.5-0.33t2.188-0.955 1.58-1.67 0.589-2.348zM27.429 22.857q0 2.839-2.009 4.848t-4.848 2.009q-2.321 0-4.179-1.429-1.375 0.286-2.679 0.286-2.554 0-4.884-0.991t-4.018-2.679-2.679-4.018-0.991-4.884q0-1.304 0.286-2.679-1.429-1.857-1.429-4.179 0-2.839 2.009-4.848t4.848-2.009q2.321 0 4.179 1.429 1.375-0.286 2.679-0.286 2.554 0 4.884 0.991t4.018 2.679 2.679 4.018 0.991 4.884q0 1.304-0.286 2.679 1.429 1.857 1.429 4.179z"></path>
</symbol>
<symbol id="icon-foursquare" viewBox="0 0 23 32">
<path class="path1" d="M17.857 7.75l0.661-3.464q0.089-0.411-0.161-0.714t-0.625-0.304h-12.714q-0.411 0-0.688 0.304t-0.277 0.661v19.661q0 0.125 0.107 0.018l5.196-6.286q0.411-0.464 0.679-0.598t0.857-0.134h4.268q0.393 0 0.661-0.259t0.321-0.527q0.429-2.321 0.661-3.411 0.071-0.375-0.205-0.714t-0.652-0.339h-5.25q-0.518 0-0.857-0.339t-0.339-0.857v-0.75q0-0.518 0.339-0.848t0.857-0.33h6.179q0.321 0 0.625-0.241t0.357-0.527zM21.911 3.786q-0.268 1.304-0.955 4.759t-1.241 6.25-0.625 3.098q-0.107 0.393-0.161 0.58t-0.25 0.58-0.438 0.589-0.688 0.375-1.036 0.179h-4.839q-0.232 0-0.393 0.179-0.143 0.161-7.607 8.821-0.393 0.446-1.045 0.509t-0.866-0.098q-0.982-0.393-0.982-1.75v-25.179q0-0.982 0.679-1.83t2.143-0.848h15.857q1.696 0 2.268 0.946t0.179 2.839zM21.911 3.786l-2.821 14.107q0.071-0.304 0.625-3.098t1.241-6.25 0.955-4.759z"></path>
</symbol>
<symbol id="icon-wordpress" viewBox="0 0 32 32">
<path class="path1" d="M2.268 16q0-2.911 1.196-5.589l6.554 17.946q-3.5-1.696-5.625-5.018t-2.125-7.339zM25.268 15.304q0 0.339-0.045 0.688t-0.179 0.884-0.205 0.786-0.313 1.054-0.313 1.036l-1.357 4.571-4.964-14.75q0.821-0.054 1.571-0.143 0.339-0.036 0.464-0.33t-0.045-0.554-0.509-0.241l-3.661 0.179q-1.339-0.018-3.607-0.179-0.214-0.018-0.366 0.089t-0.205 0.268-0.027 0.33 0.161 0.295 0.348 0.143l1.429 0.143 2.143 5.857-3 9-5-14.857q0.821-0.054 1.571-0.143 0.339-0.036 0.464-0.33t-0.045-0.554-0.509-0.241l-3.661 0.179q-0.125 0-0.411-0.009t-0.464-0.009q1.875-2.857 4.902-4.527t6.563-1.67q2.625 0 5.009 0.946t4.259 2.661h-0.179q-0.982 0-1.643 0.723t-0.661 1.705q0 0.214 0.036 0.429t0.071 0.384 0.143 0.411 0.161 0.375 0.214 0.402 0.223 0.375 0.259 0.429 0.25 0.411q1.125 1.911 1.125 3.786zM16.232 17.196l4.232 11.554q0.018 0.107 0.089 0.196-2.25 0.786-4.554 0.786-2 0-3.875-0.571zM28.036 9.411q1.696 3.107 1.696 6.589 0 3.732-1.857 6.884t-4.982 4.973l4.196-12.107q1.054-3.018 1.054-4.929 0-0.75-0.107-1.411zM16 0q3.25 0 6.214 1.268t5.107 3.411 3.411 5.107 1.268 6.214-1.268 6.214-3.411 5.107-5.107 3.411-6.214 1.268-6.214-1.268-5.107-3.411-3.411-5.107-1.268-6.214 1.268-6.214 3.411-5.107 5.107-3.411 6.214-1.268zM16 31.268q3.089 0 5.92-1.214t4.875-3.259 3.259-4.875 1.214-5.92-1.214-5.92-3.259-4.875-4.875-3.259-5.92-1.214-5.92 1.214-4.875 3.259-3.259 4.875-1.214 5.92 1.214 5.92 3.259 4.875 4.875 3.259 5.92 1.214z"></path>
</symbol>
<symbol id="icon-stumbleupon" viewBox="0 0 34 32">
<path class="path1" d="M18.964 12.714v-2.107q0-0.75-0.536-1.286t-1.286-0.536-1.286 0.536-0.536 1.286v10.929q0 3.125-2.25 5.339t-5.411 2.214q-3.179 0-5.42-2.241t-2.241-5.42v-4.75h5.857v4.679q0 0.768 0.536 1.295t1.286 0.527 1.286-0.527 0.536-1.295v-11.071q0-3.054 2.259-5.214t5.384-2.161q3.143 0 5.393 2.179t2.25 5.25v2.429l-3.482 1.036zM28.429 16.679h5.857v4.75q0 3.179-2.241 5.42t-5.42 2.241q-3.161 0-5.411-2.223t-2.25-5.366v-4.786l2.339 1.089 3.482-1.036v4.821q0 0.75 0.536 1.277t1.286 0.527 1.286-0.527 0.536-1.277v-4.911z"></path>
</symbol>
<symbol id="icon-digg" viewBox="0 0 37 32">
<path class="path1" d="M5.857 5.036h3.643v17.554h-9.5v-12.446h5.857v-5.107zM5.857 19.661v-6.589h-2.196v6.589h2.196zM10.964 10.143v12.446h3.661v-12.446h-3.661zM10.964 5.036v3.643h3.661v-3.643h-3.661zM16.089 10.143h9.518v16.821h-9.518v-2.911h5.857v-1.464h-5.857v-12.446zM21.946 19.661v-6.589h-2.196v6.589h2.196zM27.071 10.143h9.5v16.821h-9.5v-2.911h5.839v-1.464h-5.839v-12.446zM32.911 19.661v-6.589h-2.196v6.589h2.196z"></path>
</symbol>
<symbol id="icon-spotify" viewBox="0 0 27 32">
<path class="path1" d="M20.125 21.607q0-0.571-0.536-0.911-3.446-2.054-7.982-2.054-2.375 0-5.125 0.607-0.75 0.161-0.75 0.929 0 0.357 0.241 0.616t0.634 0.259q0.089 0 0.661-0.143 2.357-0.482 4.339-0.482 4.036 0 7.089 1.839 0.339 0.196 0.589 0.196 0.339 0 0.589-0.241t0.25-0.616zM21.839 17.768q0-0.714-0.625-1.089-4.232-2.518-9.786-2.518-2.732 0-5.411 0.75-0.857 0.232-0.857 1.143 0 0.446 0.313 0.759t0.759 0.313q0.125 0 0.661-0.143 2.179-0.589 4.482-0.589 4.982 0 8.714 2.214 0.429 0.232 0.679 0.232 0.446 0 0.759-0.313t0.313-0.759zM23.768 13.339q0-0.839-0.714-1.25-2.25-1.304-5.232-1.973t-6.125-0.67q-3.643 0-6.5 0.839-0.411 0.125-0.688 0.455t-0.277 0.866q0 0.554 0.366 0.929t0.92 0.375q0.196 0 0.714-0.143 2.375-0.661 5.482-0.661 2.839 0 5.527 0.607t4.527 1.696q0.375 0.214 0.714 0.214 0.518 0 0.902-0.366t0.384-0.92zM27.429 16q0 3.732-1.839 6.884t-4.991 4.991-6.884 1.839-6.884-1.839-4.991-4.991-1.839-6.884 1.839-6.884 4.991-4.991 6.884-1.839 6.884 1.839 4.991 4.991 1.839 6.884z"></path>
</symbol>
<symbol id="icon-soundcloud" viewBox="0 0 41 32">
<path class="path1" d="M14 24.5l0.286-4.304-0.286-9.339q-0.018-0.179-0.134-0.304t-0.295-0.125q-0.161 0-0.286 0.125t-0.125 0.304l-0.25 9.339 0.25 4.304q0.018 0.179 0.134 0.295t0.277 0.116q0.393 0 0.429-0.411zM19.286 23.982l0.196-3.768-0.214-10.464q0-0.286-0.232-0.429-0.143-0.089-0.286-0.089t-0.286 0.089q-0.232 0.143-0.232 0.429l-0.018 0.107-0.179 10.339q0 0.018 0.196 4.214v0.018q0 0.179 0.107 0.304 0.161 0.196 0.411 0.196 0.196 0 0.357-0.161 0.161-0.125 0.161-0.357zM0.625 17.911l0.357 2.286-0.357 2.25q-0.036 0.161-0.161 0.161t-0.161-0.161l-0.304-2.25 0.304-2.286q0.036-0.161 0.161-0.161t0.161 0.161zM2.161 16.5l0.464 3.696-0.464 3.625q-0.036 0.161-0.179 0.161-0.161 0-0.161-0.179l-0.411-3.607 0.411-3.696q0-0.161 0.161-0.161 0.143 0 0.179 0.161zM3.804 15.821l0.446 4.375-0.446 4.232q0 0.196-0.196 0.196-0.179 0-0.214-0.196l-0.375-4.232 0.375-4.375q0.036-0.214 0.214-0.214 0.196 0 0.196 0.214zM5.482 15.696l0.411 4.5-0.411 4.357q-0.036 0.232-0.25 0.232-0.232 0-0.232-0.232l-0.375-4.357 0.375-4.5q0-0.232 0.232-0.232 0.214 0 0.25 0.232zM7.161 16.018l0.375 4.179-0.375 4.393q-0.036 0.286-0.286 0.286-0.107 0-0.188-0.080t-0.080-0.205l-0.357-4.393 0.357-4.179q0-0.107 0.080-0.188t0.188-0.080q0.25 0 0.286 0.268zM8.839 13.411l0.375 6.786-0.375 4.393q0 0.125-0.089 0.223t-0.214 0.098q-0.286 0-0.321-0.321l-0.321-4.393 0.321-6.786q0.036-0.321 0.321-0.321 0.125 0 0.214 0.098t0.089 0.223zM10.518 11.875l0.339 8.357-0.339 4.357q0 0.143-0.098 0.241t-0.241 0.098q-0.321 0-0.357-0.339l-0.286-4.357 0.286-8.357q0.036-0.339 0.357-0.339 0.143 0 0.241 0.098t0.098 0.241zM12.268 11.161l0.321 9.036-0.321 4.321q-0.036 0.375-0.393 0.375-0.339 0-0.375-0.375l-0.286-4.321 0.286-9.036q0-0.161 0.116-0.277t0.259-0.116q0.161 0 0.268 0.116t0.125 0.277zM19.268 24.411v0 0zM15.732 11.089l0.268 9.107-0.268 4.268q0 0.179-0.134 0.313t-0.313 0.134-0.304-0.125-0.143-0.321l-0.25-4.268 0.25-9.107q0-0.196 0.134-0.321t0.313-0.125 0.313 0.125 0.134 0.321zM17.5 11.429l0.25 8.786-0.25 4.214q0 0.196-0.143 0.339t-0.339 0.143-0.339-0.143-0.161-0.339l-0.214-4.214 0.214-8.786q0.018-0.214 0.161-0.357t0.339-0.143 0.33 0.143 0.152 0.357zM21.286 20.214l-0.25 4.125q0 0.232-0.161 0.393t-0.393 0.161-0.393-0.161-0.179-0.393l-0.107-2.036-0.107-2.089 0.214-11.357v-0.054q0.036-0.268 0.214-0.429 0.161-0.125 0.357-0.125 0.143 0 0.268 0.089 0.25 0.143 0.286 0.464zM41.143 19.875q0 2.089-1.482 3.563t-3.571 1.473h-14.036q-0.232-0.036-0.393-0.196t-0.161-0.393v-16.054q0-0.411 0.5-0.589 1.518-0.607 3.232-0.607 3.482 0 6.036 2.348t2.857 5.777q0.946-0.393 1.964-0.393 2.089 0 3.571 1.482t1.482 3.589z"></path>
</symbol>
<symbol id="icon-codepen" viewBox="0 0 32 32">
<path class="path1" d="M3.857 20.875l10.768 7.179v-6.411l-5.964-3.982zM2.75 18.304l3.446-2.304-3.446-2.304v4.607zM17.375 28.054l10.768-7.179-4.804-3.214-5.964 3.982v6.411zM16 19.25l4.857-3.25-4.857-3.25-4.857 3.25zM8.661 14.339l5.964-3.982v-6.411l-10.768 7.179zM25.804 16l3.446 2.304v-4.607zM23.339 14.339l4.804-3.214-10.768-7.179v6.411zM32 11.125v9.75q0 0.732-0.607 1.143l-14.625 9.75q-0.375 0.232-0.768 0.232t-0.768-0.232l-14.625-9.75q-0.607-0.411-0.607-1.143v-9.75q0-0.732 0.607-1.143l14.625-9.75q0.375-0.232 0.768-0.232t0.768 0.232l14.625 9.75q0.607 0.411 0.607 1.143z"></path>
</symbol>
<symbol id="icon-twitch" viewBox="0 0 32 32">
<path class="path1" d="M16 7.75v7.75h-2.589v-7.75h2.589zM23.107 7.75v7.75h-2.589v-7.75h2.589zM23.107 21.321l4.518-4.536v-14.196h-21.321v18.732h5.821v3.875l3.875-3.875h7.107zM30.214 0v18.089l-7.75 7.75h-5.821l-3.875 3.875h-3.875v-3.875h-7.107v-20.679l1.946-5.161h26.482z"></path>
</symbol>
<symbol id="icon-meanpath" viewBox="0 0 27 32">
<path class="path1" d="M23.411 15.036v2.036q0 0.429-0.241 0.679t-0.67 0.25h-3.607q-0.429 0-0.679-0.25t-0.25-0.679v-2.036q0-0.429 0.25-0.679t0.679-0.25h3.607q0.429 0 0.67 0.25t0.241 0.679zM14.661 19.143v-4.464q0-0.946-0.58-1.527t-1.527-0.58h-2.375q-1.214 0-1.714 0.929-0.5-0.929-1.714-0.929h-2.321q-0.946 0-1.527 0.58t-0.58 1.527v4.464q0 0.393 0.375 0.393h0.982q0.393 0 0.393-0.393v-4.107q0-0.429 0.241-0.679t0.688-0.25h1.679q0.429 0 0.679 0.25t0.25 0.679v4.107q0 0.393 0.375 0.393h0.964q0.393 0 0.393-0.393v-4.107q0-0.429 0.25-0.679t0.679-0.25h1.732q0.429 0 0.67 0.25t0.241 0.679v4.107q0 0.393 0.393 0.393h0.982q0.375 0 0.375-0.393zM25.179 17.429v-2.75q0-0.946-0.589-1.527t-1.536-0.58h-4.714q-0.946 0-1.536 0.58t-0.589 1.527v7.321q0 0.375 0.393 0.375h0.982q0.375 0 0.375-0.375v-3.214q0.554 0.75 1.679 0.75h3.411q0.946 0 1.536-0.58t0.589-1.527zM27.429 6.429v19.143q0 1.714-1.214 2.929t-2.929 1.214h-19.143q-1.714 0-2.929-1.214t-1.214-2.929v-19.143q0-1.714 1.214-2.929t2.929-1.214h19.143q1.714 0 2.929 1.214t1.214 2.929z"></path>
</symbol>
<symbol id="icon-pinterest-p" viewBox="0 0 23 32">
<path class="path1" d="M0 10.661q0-1.929 0.67-3.634t1.848-2.973 2.714-2.196 3.304-1.393 3.607-0.464q2.821 0 5.25 1.188t3.946 3.455 1.518 5.125q0 1.714-0.339 3.357t-1.071 3.161-1.786 2.67-2.589 1.839-3.375 0.688q-1.214 0-2.411-0.571t-1.714-1.571q-0.179 0.696-0.5 2.009t-0.42 1.696-0.366 1.268-0.464 1.268-0.571 1.116-0.821 1.384-1.107 1.545l-0.25 0.089-0.161-0.179q-0.268-2.804-0.268-3.357 0-1.643 0.384-3.688t1.188-5.134 0.929-3.625q-0.571-1.161-0.571-3.018 0-1.482 0.929-2.786t2.357-1.304q1.089 0 1.696 0.723t0.607 1.83q0 1.179-0.786 3.411t-0.786 3.339q0 1.125 0.804 1.866t1.946 0.741q0.982 0 1.821-0.446t1.402-1.214 1-1.696 0.679-1.973 0.357-1.982 0.116-1.777q0-3.089-1.955-4.813t-5.098-1.723q-3.571 0-5.964 2.313t-2.393 5.866q0 0.786 0.223 1.518t0.482 1.161 0.482 0.813 0.223 0.545q0 0.5-0.268 1.304t-0.661 0.804q-0.036 0-0.304-0.054-0.911-0.268-1.616-1t-1.089-1.688-0.58-1.929-0.196-1.902z"></path>
</symbol>
<symbol id="icon-get-pocket" viewBox="0 0 31 32">
<path class="path1" d="M27.946 2.286q1.161 0 1.964 0.813t0.804 1.973v9.268q0 3.143-1.214 6t-3.259 4.911-4.893 3.259-5.973 1.205q-3.143 0-5.991-1.205t-4.902-3.259-3.268-4.911-1.214-6v-9.268q0-1.143 0.821-1.964t1.964-0.821h25.161zM15.375 21.286q0.839 0 1.464-0.589l7.214-6.929q0.661-0.625 0.661-1.518 0-0.875-0.616-1.491t-1.491-0.616q-0.839 0-1.464 0.589l-5.768 5.536-5.768-5.536q-0.625-0.589-1.446-0.589-0.875 0-1.491 0.616t-0.616 1.491q0 0.911 0.643 1.518l7.232 6.929q0.589 0.589 1.446 0.589z"></path>
</symbol>
<symbol id="icon-vimeo" viewBox="0 0 32 32">
<path class="path1" d="M30.518 9.25q-0.179 4.214-5.929 11.625-5.946 7.696-10.036 7.696-2.536 0-4.286-4.696-0.786-2.857-2.357-8.607-1.286-4.679-2.804-4.679-0.321 0-2.268 1.357l-1.375-1.75q0.429-0.375 1.929-1.723t2.321-2.063q2.786-2.464 4.304-2.607 1.696-0.161 2.732 0.991t1.446 3.634q0.786 5.125 1.179 6.661 0.982 4.446 2.143 4.446 0.911 0 2.75-2.875 1.804-2.875 1.946-4.393 0.232-2.482-1.946-2.482-1.018 0-2.161 0.464 2.143-7.018 8.196-6.821 4.482 0.143 4.214 5.821z"></path>
</symbol>
<symbol id="icon-reddit-alien" viewBox="0 0 32 32">
<path class="path1" d="M32 15.107q0 1.036-0.527 1.884t-1.42 1.295q0.214 0.821 0.214 1.714 0 2.768-1.902 5.125t-5.188 3.723-7.143 1.366-7.134-1.366-5.179-3.723-1.902-5.125q0-0.839 0.196-1.679-0.911-0.446-1.464-1.313t-0.554-1.902q0-1.464 1.036-2.509t2.518-1.045q1.518 0 2.589 1.125 3.893-2.714 9.196-2.893l2.071-9.304q0.054-0.232 0.268-0.375t0.464-0.089l6.589 1.446q0.321-0.661 0.964-1.063t1.411-0.402q1.107 0 1.893 0.777t0.786 1.884-0.786 1.893-1.893 0.786-1.884-0.777-0.777-1.884l-5.964-1.321-1.857 8.429q5.357 0.161 9.268 2.857 1.036-1.089 2.554-1.089 1.482 0 2.518 1.045t1.036 2.509zM7.464 18.661q0 1.107 0.777 1.893t1.884 0.786 1.893-0.786 0.786-1.893-0.786-1.884-1.893-0.777q-1.089 0-1.875 0.786t-0.786 1.875zM21.929 25q0.196-0.196 0.196-0.464t-0.196-0.464q-0.179-0.179-0.446-0.179t-0.464 0.179q-0.732 0.75-2.161 1.107t-2.857 0.357-2.857-0.357-2.161-1.107q-0.196-0.179-0.464-0.179t-0.446 0.179q-0.196 0.179-0.196 0.455t0.196 0.473q0.768 0.768 2.116 1.214t2.188 0.527 1.625 0.080 1.625-0.080 2.188-0.527 2.116-1.214zM21.875 21.339q1.107 0 1.884-0.786t0.777-1.893q0-1.089-0.786-1.875t-1.875-0.786q-1.107 0-1.893 0.777t-0.786 1.884 0.786 1.893 1.893 0.786z"></path>
</symbol>
<symbol id="icon-hashtag" viewBox="0 0 32 32">
<path class="path1" d="M17.696 18.286l1.143-4.571h-4.536l-1.143 4.571h4.536zM31.411 9.286l-1 4q-0.125 0.429-0.554 0.429h-5.839l-1.143 4.571h5.554q0.268 0 0.446 0.214 0.179 0.25 0.107 0.5l-1 4q-0.089 0.429-0.554 0.429h-5.839l-1.446 5.857q-0.125 0.429-0.554 0.429h-4q-0.286 0-0.464-0.214-0.161-0.214-0.107-0.5l1.393-5.571h-4.536l-1.446 5.857q-0.125 0.429-0.554 0.429h-4.018q-0.268 0-0.446-0.214-0.161-0.214-0.107-0.5l1.393-5.571h-5.554q-0.268 0-0.446-0.214-0.161-0.214-0.107-0.5l1-4q0.125-0.429 0.554-0.429h5.839l1.143-4.571h-5.554q-0.268 0-0.446-0.214-0.179-0.25-0.107-0.5l1-4q0.089-0.429 0.554-0.429h5.839l1.446-5.857q0.125-0.429 0.571-0.429h4q0.268 0 0.446 0.214 0.161 0.214 0.107 0.5l-1.393 5.571h4.536l1.446-5.857q0.125-0.429 0.571-0.429h4q0.268 0 0.446 0.214 0.161 0.214 0.107 0.5l-1.393 5.571h5.554q0.268 0 0.446 0.214 0.161 0.214 0.107 0.5z"></path>
</symbol>
<symbol id="icon-chain" viewBox="0 0 30 32">
<path class="path1" d="M26 21.714q0-0.714-0.5-1.214l-3.714-3.714q-0.5-0.5-1.214-0.5-0.75 0-1.286 0.571 0.054 0.054 0.339 0.33t0.384 0.384 0.268 0.339 0.232 0.455 0.063 0.491q0 0.714-0.5 1.214t-1.214 0.5q-0.268 0-0.491-0.063t-0.455-0.232-0.339-0.268-0.384-0.384-0.33-0.339q-0.589 0.554-0.589 1.304 0 0.714 0.5 1.214l3.679 3.696q0.482 0.482 1.214 0.482 0.714 0 1.214-0.464l2.625-2.607q0.5-0.5 0.5-1.196zM13.446 9.125q0-0.714-0.5-1.214l-3.679-3.696q-0.5-0.5-1.214-0.5-0.696 0-1.214 0.482l-2.625 2.607q-0.5 0.5-0.5 1.196 0 0.714 0.5 1.214l3.714 3.714q0.482 0.482 1.214 0.482 0.75 0 1.286-0.554-0.054-0.054-0.339-0.33t-0.384-0.384-0.268-0.339-0.232-0.455-0.063-0.491q0-0.714 0.5-1.214t1.214-0.5q0.268 0 0.491 0.063t0.455 0.232 0.339 0.268 0.384 0.384 0.33 0.339q0.589-0.554 0.589-1.304zM29.429 21.714q0 2.143-1.518 3.625l-2.625 2.607q-1.482 1.482-3.625 1.482-2.161 0-3.643-1.518l-3.679-3.696q-1.482-1.482-1.482-3.625 0-2.196 1.571-3.732l-1.571-1.571q-1.536 1.571-3.714 1.571-2.143 0-3.643-1.5l-3.714-3.714q-1.5-1.5-1.5-3.643t1.518-3.625l2.625-2.607q1.482-1.482 3.625-1.482 2.161 0 3.643 1.518l3.679 3.696q1.482 1.482 1.482 3.625 0 2.196-1.571 3.732l1.571 1.571q1.536-1.571 3.714-1.571 2.143 0 3.643 1.5l3.714 3.714q1.5 1.5 1.5 3.643z"></path>
</symbol>
<symbol id="icon-thumb-tack" viewBox="0 0 21 32">
<path class="path1" d="M8.571 15.429v-8q0-0.25-0.161-0.411t-0.411-0.161-0.411 0.161-0.161 0.411v8q0 0.25 0.161 0.411t0.411 0.161 0.411-0.161 0.161-0.411zM20.571 21.714q0 0.464-0.339 0.804t-0.804 0.339h-7.661l-0.911 8.625q-0.036 0.214-0.188 0.366t-0.366 0.152h-0.018q-0.482 0-0.571-0.482l-1.357-8.661h-7.214q-0.464 0-0.804-0.339t-0.339-0.804q0-2.196 1.402-3.955t3.17-1.759v-9.143q-0.929 0-1.607-0.679t-0.679-1.607 0.679-1.607 1.607-0.679h11.429q0.929 0 1.607 0.679t0.679 1.607-0.679 1.607-1.607 0.679v9.143q1.768 0 3.17 1.759t1.402 3.955z"></path>
</symbol>
<symbol id="icon-arrow-left" viewBox="0 0 43 32">
<path class="path1" d="M42.311 14.044c-0.178-0.178-0.533-0.356-0.711-0.356h-33.778l10.311-10.489c0.178-0.178 0.356-0.533 0.356-0.711 0-0.356-0.178-0.533-0.356-0.711l-1.6-1.422c-0.356-0.178-0.533-0.356-0.889-0.356s-0.533 0.178-0.711 0.356l-14.578 14.933c-0.178 0.178-0.356 0.533-0.356 0.711s0.178 0.533 0.356 0.711l14.756 14.933c0 0.178 0.356 0.356 0.533 0.356s0.533-0.178 0.711-0.356l1.6-1.6c0.178-0.178 0.356-0.533 0.356-0.711s-0.178-0.533-0.356-0.711l-10.311-10.489h33.778c0.178 0 0.533-0.178 0.711-0.356 0.356-0.178 0.533-0.356 0.533-0.711v-2.133c0-0.356-0.178-0.711-0.356-0.889z"></path>
</symbol>
<symbol id="icon-arrow-right" viewBox="0 0 43 32">
<path class="path1" d="M0.356 17.956c0.178 0.178 0.533 0.356 0.711 0.356h33.778l-10.311 10.489c-0.178 0.178-0.356 0.533-0.356 0.711 0 0.356 0.178 0.533 0.356 0.711l1.6 1.6c0.178 0.178 0.533 0.356 0.711 0.356s0.533-0.178 0.711-0.356l14.756-14.933c0.178-0.356 0.356-0.711 0.356-0.889s-0.178-0.533-0.356-0.711l-14.756-14.933c0-0.178-0.356-0.356-0.533-0.356s-0.533 0.178-0.711 0.356l-1.6 1.6c-0.178 0.178-0.356 0.533-0.356 0.711s0.178 0.533 0.356 0.711l10.311 10.489h-33.778c-0.178 0-0.533 0.178-0.711 0.356-0.356 0.178-0.533 0.356-0.533 0.711v2.311c0 0.178 0.178 0.533 0.356 0.711z"></path>
</symbol>
<symbol id="icon-play" viewBox="0 0 22 28">
<path d="M21.625 14.484l-20.75 11.531c-0.484 0.266-0.875 0.031-0.875-0.516v-23c0-0.547 0.391-0.781 0.875-0.516l20.75 11.531c0.484 0.266 0.484 0.703 0 0.969z"></path>
</symbol>
<symbol id="icon-pause" viewBox="0 0 24 28">
<path d="M24 3v22c0 0.547-0.453 1-1 1h-8c-0.547 0-1-0.453-1-1v-22c0-0.547 0.453-1 1-1h8c0.547 0 1 0.453 1 1zM10 3v22c0 0.547-0.453 1-1 1h-8c-0.547 0-1-0.453-1-1v-22c0-0.547 0.453-1 1-1h8c0.547 0 1 0.453 1 1z"></path>
</symbol>

<!-- Spinner Icons added -->
<symbol id="icon-spinner-wheel" viewBox="0 0 311.772 311.772">
<path d="M222.566,108.636C228.926,41.79,190.599,6.078,160.052,0.878c-25.159-4.282-41.66,9.115-41.66,9.115l-9.727,79.115 C41.777,82.717,6.044,121.055,0.844,151.609c-4.282,25.159,9.115,41.665,9.115,41.665l79.223,9.74
c-6.421,66.925,31.936,102.674,62.506,107.879c25.157,4.282,41.663-9.112,41.663-9.112l9.739-79.239
c66.899,6.402,102.638-31.946,107.837-62.506c4.282-25.157-9.112-41.666-9.112-41.666L222.566,108.636z M202.901,222.326
L89.404,202.872L108.85,89.443l113.5,19.456L202.901,222.326z"/>
</symbol>
<symbol id="icon-spinner-double-circle" viewBox="0 0 533.333 533.333">
<path d="M266.667,0C119.391,0,0,119.391,0,266.667c0,147.275,119.391,266.666,266.667,266.666
c147.275,0,266.667-119.391,266.667-266.666C533.333,119.391,413.942,0,266.667,0z M266.667,133.333
c73.638,0,133.333,59.696,133.333,133.333C400,340.304,340.304,400,266.667,400c-73.637,0-133.333-59.696-133.333-133.333
C133.333,193.029,193.029,133.333,266.667,133.333z M425.766,425.766c-42.498,42.497-99,65.901-159.1,65.901
s-116.602-23.404-159.099-65.901c-42.498-42.497-65.901-99-65.901-159.099c0-60.099,23.404-116.603,65.901-159.099l35.355,35.355
l0,0c-68.232,68.232-68.232,179.255,0,247.487c33.053,33.054,76.999,51.257,123.744,51.257c46.744,0,90.69-18.203,123.744-51.257
c68.231-68.232,68.231-179.254,0-247.487l35.355-35.355c42.496,42.497,65.9,99,65.9,159.099
C491.667,326.766,468.262,383.269,425.766,425.766z"/>
</symbol>
<symbol id="icon-spinner-two-way" viewBox="0 0 533.333 533.333">
<path d="M266.667,0C121.485,0,3.407,116.022,0.079,260.403C3.163,134.433,98.95,33.333,216.667,33.333
c119.661,0,216.667,104.467,216.667,233.333c0,27.614,22.386,50,50,50s50-22.386,50-50C533.333,119.391,413.942,0,266.667,0z
 M266.667,533.333c145.182,0,263.259-116.021,266.587-260.402C530.17,398.901,434.383,500,316.667,500
C197.005,500,100,395.533,100,266.667c0-27.615-22.386-50-50-50s-50,22.386-50,50C0,413.942,119.391,533.333,266.667,533.333z"/>
</symbol>
<symbol id="icon-spinner-umbrella" viewBox="0 0 512 512">
<path d="M96,255.006c0-6.09,0.352-12.098,1.015-18.011l-92.49-30.052C1.567,222.513,0,238.575,0,255.006
c0,73.615,31.083,139.96,80.827,186.662l57.142-78.647C111.907,334.557,96,296.641,96,255.006z M416,255.006
c0,41.634-15.906,79.55-41.969,108.014l57.143,78.647C480.916,394.967,512,328.621,512,255.006c0-16.431-1.566-32.493-4.523-48.063
l-92.49,30.052C415.648,242.909,416,248.917,416,255.006z M288,98.21c45.967,9.331,84.771,38.371,107.225,77.913l92.49-30.051
C451.115,68.362,376.594,12.042,288,0.994V98.21z M116.775,176.123c22.453-39.542,61.258-68.582,107.225-77.913V0.994
C135.406,12.042,60.885,68.362,24.287,146.071L116.775,176.123z M322.277,400.67c-20.195,9.205-42.635,14.336-66.277,14.336
c-23.642,0-46.083-5.131-66.277-14.334l-57.146,78.654c36.603,20.184,78.668,31.68,123.423,31.68
c44.756,0,86.82-11.496,123.424-31.68L322.277,400.67z"/>
</symbol>
<symbol id="icon-spinner-circle" viewBox="0 0 512 512">
<path d="M9.9 0.2l-0.2 1c3 0.8 5.3 3.5 5.3 6.8 0 3.9-3.1 7-7 7s-7-3.1-7-7c0-3.3 2.3-6 5.3-6.8l-0.2-1c-3.5 0.9-6.1 4.1-6.1 7.8 0 4.4 3.6 8 8 8s8-3.6 8-8c0-3.7-2.6-6.9-6.1-7.8z"></path>
</symbol>
<symbol id="icon-spinner-dots" viewBox="0 0 32.707 32.707">
<path d="M21.477,4.511c0,2.487-2.021,4.508-4.508,4.508c-2.49,0-4.509-2.021-4.509-4.508c0-2.49,2.02-4.511,4.509-4.511
C19.458,0,21.477,2.021,21.477,4.511z M16.972,27.68c-1.386-0.002-2.513,1.119-2.517,2.508c-0.003,1.391,1.117,2.518,2.505,2.52
c1.39,0.004,2.517-1.117,2.519-2.506C19.484,28.811,18.361,27.684,16.972,27.68z M31.451,17.352c0-0.906-0.734-1.641-1.641-1.641
c-0.908,0-1.644,0.732-1.644,1.641c0,0.904,0.733,1.643,1.644,1.643C30.716,18.994,31.451,18.258,31.451,17.352z M6.995,17.352
c0-1.585-1.284-2.87-2.87-2.87s-2.869,1.285-2.869,2.87c0,1.584,1.283,2.869,2.869,2.869S6.995,18.936,6.995,17.352z M26.962,7.354
c-0.504-0.506-1.319-0.504-1.825,0c-0.505,0.506-0.505,1.328,0,1.832c0.506,0.506,1.321,0.506,1.825,0S27.466,7.86,26.962,7.354z
 M9.973,24.354c-1.152-1.146-3.019-1.146-4.17-0.002c-1.151,1.146-1.152,3.012,0,4.16c1.152,1.148,3.018,1.15,4.168,0
C11.125,27.367,11.125,25.502,9.973,24.354z M27.251,27.631c0.658-0.662,0.658-1.734-0.002-2.396
c-0.658-0.658-1.726-0.658-2.385,0.004c-0.658,0.66-0.658,1.732,0,2.395C25.525,28.293,26.591,28.293,27.251,27.631z
 M10.047,10.427c1.188-1.189,1.188-3.119,0-4.311c-1.188-1.189-3.115-1.189-4.305,0c-1.188,1.189-1.188,3.119,0.001,4.311
S8.858,11.618,10.047,10.427z"/>
</symbol>
<symbol id="icon-spinner-one-way" viewBox="0 0 516.727 516.727">
<path d="M516.727,266.696c-0.665-34.825-8.221-69.54-22.175-101.283c-13.908-31.771-34.094-60.551-58.876-84.333
c-24.767-23.8-54.139-42.615-85.929-55.027c-31.773-12.46-65.937-18.412-99.687-17.69c-33.755,0.668-67.36,8.007-98.091,21.539
c-30.754,13.488-58.615,33.058-81.632,57.071c-23.033,24.001-41.229,52.452-53.222,83.229C5.077,200.962-0.66,234.013,0.06,266.696
c0.67,32.688,7.793,65.182,20.903,94.899c13.067,29.738,32.019,56.681,55.266,78.931c23.234,22.268,50.766,39.846,80.528,51.417
c29.749,11.616,61.69,17.136,93.303,16.419c31.62-0.671,63.001-7.58,91.707-20.268c28.724-12.646,54.747-30.979,76.231-53.461
c21.503-22.469,38.461-49.08,49.611-77.827c6.79-17.427,11.396-35.624,13.824-54.062c0.649,0.037,1.302,0.063,1.96,0.063
c18.409,0,33.333-14.923,33.333-33.333c0-0.936-0.049-1.861-0.124-2.777L516.727,266.696L516.727,266.696z M463.762,355.21
c-12.226,27.71-29.94,52.812-51.655,73.532c-21.703,20.732-47.396,37.076-75.127,47.807c-27.724,10.77-57.443,15.859-86.919,15.146
c-29.481-0.677-58.644-7.154-85.323-18.997c-26.692-11.806-50.877-28.901-70.83-49.849c-19.968-20.938-35.691-45.711-46.001-72.427
c-10.349-26.712-15.223-55.321-14.512-83.728c0.678-28.413,6.941-56.465,18.361-82.131c11.384-25.677,27.863-48.943,48.045-68.13
c20.172-19.202,44.026-34.307,69.726-44.195c25.697-9.928,53.195-14.587,80.534-13.877c27.343,0.68,54.286,6.728,78.939,17.726
c24.662,10.963,47.008,26.824,65.429,46.241c18.436,19.405,32.922,42.341,42.391,67.025c9.504,24.684,13.948,51.072,13.241,77.342
h0.125c-0.076,0.916-0.125,1.841-0.125,2.777c0,17.193,13.018,31.34,29.732,33.137C476.551,320.747,471.184,338.453,463.762,355.21
z"/>
</symbol>
<symbol id="icon-spinner-fidget" viewBox="0 0 512.114 512.114">
<path d="M479.264,322.402c-15.296-15.259-34.709-25.726-55.863-30.119c-43.211-9.965-74.142-47.995-75.093-92.331
c-0.705-13.677,1.717-27.335,7.083-39.936c0.597-1.451,1.28-2.901,1.963-4.352l0.768-1.621
c23.792-56.459-2.69-121.516-59.149-145.307c-56.459-23.792-121.516,2.69-145.307,59.149
c-11.696,27.754-11.604,59.071,0.254,86.756l0.512,1.024c0.683,1.451,1.365,2.901,2.048,4.523
c5.311,12.555,7.704,26.151,6.997,39.765c-0.952,44.335-31.882,82.366-75.093,92.331c-59.996,12.636-98.389,71.517-85.753,131.513
c12.636,59.996,71.516,98.389,131.513,85.753c20.948-4.412,40.173-14.786,55.36-29.873c36.711-36.636,96.153-36.636,132.864,0
c43.43,43.326,113.759,43.242,157.085-0.187C522.777,436.058,522.693,365.728,479.264,322.402z M255.891,34.064
c42.415,0,76.8,34.385,76.8,76.8s-34.385,76.8-76.8,76.8s-76.8-34.385-76.8-76.8C179.155,68.475,213.502,34.127,255.891,34.064z
 M110.824,477.797c-42.415,0-76.8-34.385-76.8-76.8s34.385-76.8,76.8-76.8s76.8,34.385,76.8,76.8
C187.561,443.386,153.214,477.733,110.824,477.797z M255.891,375.397c-42.389-0.064-76.736-34.411-76.8-76.8
c0-42.415,34.385-76.8,76.8-76.8s76.8,34.385,76.8,76.8S298.307,375.397,255.891,375.397z M400.958,477.797
c-42.415,0-76.8-34.385-76.8-76.8s34.385-76.8,76.8-76.8s76.8,34.385,76.8,76.8C477.694,443.386,443.347,477.733,400.958,477.797z
"/>
<path d="M255.891,51.13c-32.99,0-59.733,26.744-59.733,59.733c0.036,32.975,26.759,59.697,59.733,59.733
c32.99,0,59.733-26.744,59.733-59.733S288.881,51.13,255.891,51.13z M255.891,153.53c-23.564,0-42.667-19.103-42.667-42.667
c0.008-23.561,19.106-42.658,42.667-42.667c23.564,0,42.667,19.103,42.667,42.667S279.455,153.53,255.891,153.53z"/>
<circle cx="255.891" cy="110.864" r="25.6"/>
<path d="M255.891,238.864c-32.99,0-59.733,26.744-59.733,59.733s26.744,59.733,59.733,59.733
c32.975-0.036,59.697-26.759,59.733-59.733C315.624,265.607,288.881,238.864,255.891,238.864z M255.891,272.997
c-14.121,0.041-25.559,11.479-25.6,25.6c0,4.713-3.82,8.533-8.533,8.533s-8.533-3.82-8.533-8.533
c0.008-23.561,19.106-42.658,42.667-42.667c4.713,0,8.533,3.82,8.533,8.533S260.604,272.997,255.891,272.997z"/>
<path d="M110.824,341.264c-32.99,0-59.733,26.744-59.733,59.733s26.744,59.733,59.733,59.733s59.733-26.744,59.733-59.733
C170.522,368.022,143.799,341.3,110.824,341.264z M110.824,443.664c-23.564,0-42.667-19.102-42.667-42.667
c0-23.564,19.103-42.667,42.667-42.667s42.667,19.102,42.667,42.667C153.483,424.558,134.385,443.655,110.824,443.664z"/>
<circle cx="110.824" cy="400.997" r="25.6"/>
<path d="M400.958,341.264c-32.99,0-59.733,26.744-59.733,59.733s26.744,59.733,59.733,59.733s59.733-26.744,59.733-59.733
C460.655,368.022,433.933,341.3,400.958,341.264z M400.958,443.664c-23.564,0-42.667-19.102-42.667-42.667
c0-23.564,19.102-42.667,42.667-42.667c23.564,0,42.667,19.102,42.667,42.667C443.616,424.558,424.518,443.655,400.958,443.664z"
/>
<circle cx="400.958" cy="400.997" r="25.6"/>
</symbol>
</defs>
</svg>
