<?xml version="1.0" encoding="utf-8"?>
<!-- Generator: Adobe Illustrator 19.0.0, SVG Export Plug-In . SVG Version: 6.00 Build 0)  -->
<svg version="1.1" id="Layer_1" xmlns="http://www.w3.org/2000/svg" xmlns:xlink="http://www.w3.org/1999/xlink" x="0px" y="0px"
	 viewBox="0 0 200 162" style="enable-background:new 0 0 200 162;" xml:space="preserve">
<style type="text/css">
	.st0{fill:#27B4A9;}
</style>
<g id="XMLID_2_">
	<path id="XMLID_3_" class="st0" d="M38.3,38.1c-9.6,12-14.4,24.2-14.4,36.6c0,5.2,0.6,9.7,1.9,13.5c7.1-5.7,15.1-8.5,23.9-8.5
		c11.5,0,21.2,3.7,29.2,11.1c8,7.4,11.9,17.4,11.9,30c0,7.7-1.9,14.8-5.7,21s-8.8,11.2-15.1,14.8c-6.3,3.6-13.1,5.3-20.4,5.3
		c-16.5,0-29.2-6.8-38-20.4c-7.3-11.3-11-25.4-11-42.4c0-21.6,5.5-40.9,16.5-57.9C28.1,24.2,44.7,10.5,66.9,0l6,11.6
		C59.5,17.3,47.9,26.1,38.3,38.1z M147.6,38.1c-9.6,12-14.4,24.2-14.4,36.6c0,5.2,0.6,9.7,1.9,13.5c7.3-5.7,15.3-8.5,23.9-8.5
		c11.7,0,21.5,3.7,29.4,11.1c7.8,7.4,11.8,17.4,11.8,30c0,11.7-4,21.5-11.9,29.4c-8,7.8-17.7,11.8-29.2,11.8
		c-16.5,0-29.2-6.8-38-20.4c-7.3-11.3-11-25.4-11-42.4c0-21.6,5.5-40.9,16.5-57.9c11-17.1,27.6-30.8,49.8-41.3l6,11.6
		C168.7,17.3,157.2,26.1,147.6,38.1z"/>
</g>
</svg>
