<?xml version="1.0" encoding="utf-8"?>
<!-- Generator: Adobe Illustrator 19.0.0, SVG Export Plug-In . SVG Version: 6.00 Build 0)  -->
<svg version="1.1" id="Layer_1" xmlns="http://www.w3.org/2000/svg" xmlns:xlink="http://www.w3.org/1999/xlink" x="0px" y="0px"
	 viewBox="0 0 612 792" style="enable-background:new 0 0 612 792;" xml:space="preserve">
<g>
	<path d="M310.9,326.6c-2.2,2.8-3.4,5.7-3.4,8.5c0,1.2,0.1,2.3,0.4,3.1c1.7-1.3,3.5-2,5.6-2c2.7,0,5,0.9,6.8,2.6
		c1.9,1.7,2.8,4.1,2.8,7c0,1.8-0.4,3.4-1.3,4.9s-2.1,2.6-3.5,3.4c-1.5,0.8-3.1,1.2-4.8,1.2c-3.9,0-6.8-1.6-8.9-4.8
		c-1.7-2.6-2.6-5.9-2.6-9.9c0-5,1.3-9.5,3.8-13.5c2.6-4,6.4-7.2,11.6-9.6l1.4,2.7C315.8,321.7,313.2,323.8,310.9,326.6z
		 M336.4,326.6c-2.2,2.8-3.4,5.7-3.4,8.5c0,1.2,0.1,2.3,0.4,3.1c1.7-1.3,3.6-2,5.6-2c2.7,0,5,0.9,6.8,2.6c1.8,1.7,2.7,4.1,2.7,7
		c0,2.7-0.9,5-2.8,6.8c-1.9,1.8-4.1,2.7-6.8,2.7c-3.9,0-6.8-1.6-8.9-4.8c-1.7-2.6-2.6-5.9-2.6-9.9c0-5,1.3-9.5,3.8-13.5
		c2.6-4,6.4-7.2,11.6-9.6l1.4,2.7C341.3,321.7,338.7,323.8,336.4,326.6z"/>
</g>
</svg>
